<svg width="305" height="26" viewBox="0 0 305 26" fill="none" xmlns="http://www.w3.org/2000/svg">
<path d="M42.9219 16.7617L41.9062 17.7773V21H39.084V6H41.9062V14.3105L42.4531 13.6074L45.1582 10.4336H48.5469L44.7285 14.8379L48.8789 21H45.6367L42.9219 16.7617ZM56.8906 21C56.7604 20.7461 56.666 20.4303 56.6074 20.0527C55.9238 20.8145 55.0352 21.1953 53.9414 21.1953C52.9062 21.1953 52.0469 20.8958 51.3633 20.2969C50.6862 19.6979 50.3477 18.9427 50.3477 18.0312C50.3477 16.9115 50.7611 16.0521 51.5879 15.4531C52.4212 14.8542 53.6224 14.5514 55.1914 14.5449H56.4902V13.9395C56.4902 13.4512 56.3633 13.0605 56.1094 12.7676C55.862 12.4746 55.4681 12.3281 54.9277 12.3281C54.4525 12.3281 54.0781 12.4421 53.8047 12.6699C53.5378 12.8978 53.4043 13.2103 53.4043 13.6074H50.582C50.582 12.9954 50.7708 12.429 51.1484 11.9082C51.526 11.3874 52.0599 10.9805 52.75 10.6875C53.4401 10.388 54.2148 10.2383 55.0742 10.2383C56.3763 10.2383 57.4082 10.5671 58.1699 11.2246C58.9382 11.8757 59.3223 12.7936 59.3223 13.9785V18.5586C59.3288 19.5612 59.4688 20.3197 59.7422 20.834V21H56.8906ZM54.5566 19.0371C54.9733 19.0371 55.3574 18.946 55.709 18.7637C56.0605 18.5749 56.321 18.3242 56.4902 18.0117V16.1953H55.4355C54.0228 16.1953 53.2708 16.6836 53.1797 17.6602L53.1699 17.8262C53.1699 18.1777 53.2936 18.4674 53.541 18.6953C53.7884 18.9232 54.127 19.0371 54.5566 19.0371ZM67.9785 16.0488H62.4805V13.7734H67.9785V16.0488ZM74.623 7.83594V10.4336H76.4297V12.5039H74.623V17.7773C74.623 18.168 74.6979 18.4479 74.8477 18.6172C74.9974 18.7865 75.2839 18.8711 75.707 18.8711C76.0195 18.8711 76.2962 18.8483 76.5371 18.8027V20.9414C75.9837 21.1107 75.4141 21.1953 74.8281 21.1953C72.849 21.1953 71.8398 20.196 71.8008 18.1973V12.5039H70.2578V10.4336H71.8008V7.83594H74.623ZM85.125 21C84.9948 20.7461 84.9004 20.4303 84.8418 20.0527C84.1582 20.8145 83.2695 21.1953 82.1758 21.1953C81.1406 21.1953 80.2812 20.8958 79.5977 20.2969C78.9206 19.6979 78.582 18.9427 78.582 18.0312C78.582 16.9115 78.9954 16.0521 79.8223 15.4531C80.6556 14.8542 81.8568 14.5514 83.4258 14.5449H84.7246V13.9395C84.7246 13.4512 84.5977 13.0605 84.3438 12.7676C84.0964 12.4746 83.7025 12.3281 83.1621 12.3281C82.6868 12.3281 82.3125 12.4421 82.0391 12.6699C81.7721 12.8978 81.6387 13.2103 81.6387 13.6074H78.8164C78.8164 12.9954 79.0052 12.429 79.3828 11.9082C79.7604 11.3874 80.2943 10.9805 80.9844 10.6875C81.6745 10.388 82.4492 10.2383 83.3086 10.2383C84.6107 10.2383 85.6426 10.5671 86.4043 11.2246C87.1725 11.8757 87.5566 12.7936 87.5566 13.9785V18.5586C87.5632 19.5612 87.7031 20.3197 87.9766 20.834V21H85.125ZM82.791 19.0371C83.2077 19.0371 83.5918 18.946 83.9434 18.7637C84.2949 18.5749 84.5553 18.3242 84.7246 18.0117V16.1953H83.6699C82.2572 16.1953 81.5052 16.6836 81.4141 17.6602L81.4043 17.8262C81.4043 18.1777 81.528 18.4674 81.7754 18.6953C82.0228 18.9232 82.3613 19.0371 82.791 19.0371ZM100.246 15.8145C100.246 17.5072 99.8848 18.8288 99.1621 19.7793C98.4395 20.7233 97.4303 21.1953 96.1348 21.1953C94.9889 21.1953 94.0742 20.7559 93.3906 19.877L93.2637 21H90.7246V6H93.5469V11.3809C94.1979 10.6191 95.054 10.2383 96.1152 10.2383C97.4043 10.2383 98.4134 10.7135 99.1426 11.6641C99.8783 12.6081 100.246 13.9395 100.246 15.6582V15.8145ZM97.4238 15.6094C97.4238 14.5417 97.2546 13.7637 96.916 13.2754C96.5775 12.7806 96.0729 12.5332 95.4023 12.5332C94.5039 12.5332 93.8854 12.901 93.5469 13.6367V17.8066C93.8919 18.5488 94.5169 18.9199 95.4219 18.9199C96.3333 18.9199 96.9323 18.4707 97.2188 17.5723C97.3555 17.1426 97.4238 16.4883 97.4238 15.6094ZM105.973 21H103.141V6H105.973V21ZM114.17 21.1953C112.62 21.1953 111.357 20.7201 110.381 19.7695C109.411 18.819 108.926 17.5527 108.926 15.9707V15.6973C108.926 14.6361 109.131 13.6888 109.541 12.8555C109.951 12.0156 110.531 11.3711 111.279 10.9219C112.035 10.4661 112.894 10.2383 113.857 10.2383C115.303 10.2383 116.439 10.694 117.266 11.6055C118.099 12.5169 118.516 13.8092 118.516 15.4824V16.6348H111.787C111.878 17.3249 112.152 17.8783 112.607 18.2949C113.07 18.7116 113.652 18.9199 114.355 18.9199C115.443 18.9199 116.292 18.526 116.904 17.7383L118.291 19.291C117.868 19.89 117.295 20.3587 116.572 20.6973C115.85 21.0293 115.049 21.1953 114.17 21.1953ZM113.848 12.5234C113.288 12.5234 112.832 12.7122 112.48 13.0898C112.135 13.4674 111.914 14.0078 111.816 14.7109H115.742V14.4863C115.729 13.8613 115.56 13.3796 115.234 13.041C114.909 12.696 114.447 12.5234 113.848 12.5234Z" fill="#353C44"/>
<rect opacity="0.8" y="10" width="16" height="16" rx="8" fill="#61DAFB" fill-opacity="0.8"/>
<rect opacity="0.8" x="10" y="10" width="16" height="16" rx="8" fill="#764ABC" fill-opacity="0.8"/>
<rect opacity="0.8" x="5" width="16" height="16" rx="8" fill="#ECF0F4"/>
</svg>
