<svg width="20" height="20" viewBox="0 0 20 20" fill="none" xmlns="http://www.w3.org/2000/svg">
<path d="M1 2.2522C0.447716 2.2522 0 2.69991 0 3.2522V11.3062C0 11.8584 0.447715 12.3062 1 12.3062H7.7354C7.81015 12.3062 7.86555 12.2457 7.86555 12.1709V12.1709C7.86555 12.0508 7.86914 11.9316 7.8761 11.8132C7.91448 11.1601 7.44186 10.539 6.78766 10.539H2.76841C2.21613 10.539 1.76842 10.0913 1.76842 9.53904V5.02061C1.76842 4.46833 2.21613 4.02061 2.76842 4.02061H17.2329C17.7852 4.02061 18.2329 4.46833 18.2329 5.02061V6.54494C18.2329 6.74969 18.3324 6.94057 18.4921 7.06876V7.06876C18.9972 7.47428 20 7.13765 20 6.48995V3.2522C20 2.69991 19.5523 2.2522 19 2.2522H1Z" fill="#353C44"/>
<path d="M14.5583 6.86572C11.5585 6.86572 9.11914 9.3064 9.11914 12.3062C9.11914 15.3073 11.5585 17.748 14.5583 17.748C17.5607 17.748 20.0001 15.3073 20.0001 12.3062C20.0001 9.3064 17.5607 6.86572 14.5583 6.86572ZM14.5583 16.2708C12.3751 16.2708 10.5963 14.4933 10.5963 12.3062C10.5963 10.1217 12.3751 8.34157 14.5583 8.34157C16.748 8.34157 18.5243 10.1217 18.5243 12.3062C18.5243 14.4933 16.748 16.2708 14.5583 16.2708Z" fill="#353C44"/>
<path d="M15.1758 13.3992H14.1094L13.9414 9.51245H15.3438L15.1758 13.3992ZM13.9023 14.6101C13.9023 14.4174 13.9714 14.2598 14.1094 14.1375C14.25 14.0125 14.4245 13.95 14.6328 13.95C14.8411 13.95 15.0143 14.0125 15.1523 14.1375C15.293 14.2598 15.3633 14.4174 15.3633 14.6101C15.3633 14.8028 15.293 14.9617 15.1523 15.0867C15.0143 15.2091 14.8411 15.2703 14.6328 15.2703C14.4245 15.2703 14.25 15.2091 14.1094 15.0867C13.9714 14.9617 13.9023 14.8028 13.9023 14.6101Z" fill="#353C44"/>
</svg>
