<?xml version="1.0" encoding="utf-8"?>
<!-- Generator: Adobe Illustrator 21.0.0, SVG Export Plug-In . SVG Version: 6.00 Build 0)  -->
<svg version="1.1" id="Capa_1" xmlns="http://www.w3.org/2000/svg" xmlns:xlink="http://www.w3.org/1999/xlink" x="0px" y="0px"
	 viewBox="0 0 512 512" style="enable-background:new 0 0 512 512;" xml:space="preserve">
<style type="text/css">
	.st0{fill:#353C44;}
</style>
<g>
	<g>
		<path class="st0" d="M491.5,148.5c27.3-27.3,27.3-71.7,0-99L442,0l-43.4,43.4C356.1,14.7,306.6-0.3,254.8,0
			C114.1,0.7-0.2,115.7,0,256.4c0.1,68.3,26.8,132.5,75.1,180.7C123.5,485.4,187.7,512,256,512c13.5,0,27-1.1,40.2-3.1
			c20.2-3.2,37.2-15.4,46.8-33.4c9.8-18.3,10.3-39.7,1.5-58.6C334.9,396.2,330,374,330,351c0-29.5,8.3-58.3,23.9-83.1
			c11.3-17.9,26.1-33.3,43.3-45.2l8.8,254.9l0,0.2C407,496.9,422.8,512,442,512c19.2,0,35-15.1,35.9-34.3l8.9-258.5
			c3.2-4.2,5.2-9.5,5.2-15.2v-40c0-4.6-1.3-9-3.5-12.7C489.5,150.4,490.5,149.5,491.5,148.5z M392,164v26.5
			c-25.7,15.1-47.5,36.1-63.4,61.4C309.9,281.5,300,315.8,300,351c0,27.4,5.8,53.8,17.3,78.5c4.8,10.3,4.5,21.9-0.8,31.8
			c-5.1,9.6-14.3,16.2-25,17.9c-11.7,1.8-23.6,2.8-35.5,2.8c-60.3,0-117-23.5-159.7-66.1C53.7,373.3,30.1,316.7,30,256.4
			C29.8,132.2,130.7,30.6,254.9,30c44.9-0.2,87.8,12.5,124.9,36.9c-5.1,9.8-7.8,20.8-7.8,32.1c0,18.7,7.3,36.3,20.5,49.5
			c1,1,2,1.9,3,2.8C393.3,155,392,159.4,392,164z M448,476.4c-0.2,3.2-2.8,5.6-6,5.6s-5.8-2.5-6-5.6L427.5,229h28.9L448,476.4z
			 M462,199h-40v-30h40V199z M470.3,127.3c-7.6,7.6-17.6,11.7-28.3,11.7s-20.7-4.2-28.3-11.7h0c-15.6-15.6-15.6-41,0-56.6L442,42.4
			l28.3,28.3C477.9,78.3,482,88.3,482,99C482,109.7,477.9,119.7,470.3,127.3z"/>
	</g>
</g>
<g>
	<g>
		<path class="st0" d="M211,346c-24.8,0-45,20.2-45,45s20.2,45,45,45s45-20.2,45-45S235.8,346,211,346z M211,406
			c-8.3,0-15-6.7-15-15s6.7-15,15-15s15,6.7,15,15S219.3,406,211,406z"/>
	</g>
</g>
<g>
	<g>
		<path class="st0" d="M124,263c-24.8,0-45,20.2-45,45s20.2,45,45,45s45-20.2,45-45S148.8,263,124,263z M124,323
			c-8.3,0-15-6.7-15-15s6.7-15,15-15s15,6.7,15,15S132.3,323,124,323z"/>
	</g>
</g>
<g>
	<g>
		<path class="st0" d="M145,143c-24.8,0-45,20.2-45,45s20.2,45,45,45s45-20.2,45-45S169.8,143,145,143z M145,203
			c-8.3,0-15-6.7-15-15s6.7-15,15-15s15,6.7,15,15S153.3,203,145,203z"/>
	</g>
</g>
<g>
	<g>
		<path class="st0" d="M238,74c-24.8,0-45,20.2-45,45s20.2,45,45,45s45-20.2,45-45S262.8,74,238,74z M238,134c-8.3,0-15-6.7-15-15
			s6.7-15,15-15s15,6.7,15,15S246.3,134,238,134z"/>
	</g>
</g>
</svg>
