<svg width="20" height="20" viewBox="0 0 20 20" fill="none" xmlns="http://www.w3.org/2000/svg">
<path d="M1 2.2522C0.447716 2.2522 0 2.69991 0 3.2522V11.3062C0 11.8584 0.447715 12.3062 1 12.3062H7.7354C7.81015 12.3062 7.86555 12.2457 7.86555 12.1709V12.1709C7.86555 12.0508 7.86914 11.9316 7.8761 11.8132C7.91448 11.1601 7.44186 10.539 6.78766 10.539H2.76841C2.21613 10.539 1.76842 10.0913 1.76842 9.53904V5.02061C1.76842 4.46833 2.21613 4.02061 2.76842 4.02061H17.2329C17.7852 4.02061 18.2329 4.46833 18.2329 5.02061V6.54494C18.2329 6.74969 18.3324 6.94057 18.4921 7.06876V7.06876C18.9972 7.47428 20 7.13765 20 6.48995V3.2522C20 2.69991 19.5523 2.2522 19 2.2522H1Z" fill="#353C44"/>
<path d="M14.5583 6.86572C11.5585 6.86572 9.11914 9.3064 9.11914 12.3062C9.11914 15.3073 11.5585 17.748 14.5583 17.748C17.5607 17.748 20.0001 15.3073 20.0001 12.3062C20.0001 9.3064 17.5607 6.86572 14.5583 6.86572ZM14.5583 16.2708C12.3751 16.2708 10.5963 14.4933 10.5963 12.3062C10.5963 10.1217 12.3751 8.34157 14.5583 8.34157C16.748 8.34157 18.5243 10.1217 18.5243 12.3062C18.5243 14.4933 16.748 16.2708 14.5583 16.2708Z" fill="#353C44"/>
<path d="M16.389 11.3894H12.8262C12.4298 11.3894 12.1084 11.7108 12.1084 12.1072C12.1084 12.5036 12.4298 12.8249 12.8262 12.8249H16.389C16.7854 12.8249 17.1068 12.5036 17.1068 12.1072C17.1068 11.7108 16.7854 11.3894 16.389 11.3894Z" fill="#353C44"/>
<path d="M13.8899 10.3257V13.8886C13.8899 14.285 14.2112 14.6063 14.6077 14.6063C15.0041 14.6063 15.3254 14.285 15.3254 13.8886V10.3257C15.3254 9.9293 15.0041 9.60795 14.6077 9.60795C14.2112 9.60795 13.8899 9.9293 13.8899 10.3257Z" fill="#353C44"/>
</svg>
