<svg width="20" height="20" viewBox="0 0 20 20" fill="none" xmlns="http://www.w3.org/2000/svg">
<path d="M1 2.2522C0.447716 2.2522 0 2.69991 0 3.2522V11.3062C0 11.8584 0.447715 12.3062 1 12.3062H7.7354C7.81015 12.3062 7.86555 12.2457 7.86555 12.1709V12.1709C7.86555 12.0508 7.86914 11.9316 7.8761 11.8132C7.91448 11.1601 7.44186 10.539 6.78766 10.539H2.76841C2.21613 10.539 1.76842 10.0913 1.76842 9.53904V5.02061C1.76842 4.46833 2.21613 4.02061 2.76842 4.02061H17.2329C17.7852 4.02061 18.2329 4.46833 18.2329 5.02061V6.54494C18.2329 6.74969 18.3324 6.94057 18.4921 7.06876V7.06876C18.9972 7.47428 20 7.13765 20 6.48995V3.2522C20 2.69991 19.5523 2.2522 19 2.2522H1Z" fill="#353C44"/>
<path d="M10.5052 11.3051L10.6475 11.3445L9.86543 13.615L10.0099 13.6551L9.8654 13.6151L9.86541 13.615C9.82462 13.7619 9.86615 13.9191 9.97369 14.0268L9.97385 14.027C10.0816 14.1345 10.2387 14.176 10.3855 14.1354L10.3856 14.1354L12.6956 13.4954C12.6956 13.4954 12.6956 13.4954 12.6956 13.4954C12.7659 13.4759 12.83 13.4386 12.8816 13.3869L12.7756 13.2809L12.8816 13.3869L17.7472 8.52121L17.7473 8.5211C18.2842 7.98293 18.2842 7.11172 17.7473 6.57355L17.7472 6.57343L17.4271 6.25341C16.8892 5.71553 16.0172 5.71553 15.4793 6.25341L10.6137 11.119C10.562 11.1707 10.5247 11.2348 10.5052 11.3051ZM16.9662 8.10661L15.894 7.03438L16.0772 6.85121L16.0772 6.85119C16.2849 6.64354 16.6216 6.64354 16.8292 6.85119L16.8293 6.85121L17.1492 7.17107C17.1493 7.17111 17.1493 7.17115 17.1493 7.17119C17.3567 7.37921 17.3566 7.71572 17.1492 7.92356L16.9662 8.10661ZM11.5262 11.4024L15.2962 7.63226L16.3683 8.70439L12.5982 12.4745L11.5262 11.4024ZM10.8796 13.1212L11.1334 12.2051L11.7956 12.8674L10.8796 13.1212Z" fill="#353C44" stroke="#353C44" stroke-width="0.3"/>
</svg>
