
<svg width="22" height="22" fill="none" xmlns="http://www.w3.org/2000/svg" viewBox="0 0 502 502" >
<g>
	<g>
		<g>
			<path d="M491.951,414.346l-66.37-66.37c-6.971-6.97-17.36-9.036-26.468-5.264c-9.108,3.772-14.993,12.58-14.993,22.438v9.98
				c0,2.364-1.923,4.287-4.287,4.287h-6.713V103c0-2.652-1.054-5.196-2.929-7.071l-93-93C275.316,1.054,272.772,0,270.12,0h-253
				c-5.523,0-10,4.477-10,10v482c0,5.523,4.477,10,10,10h346c5.523,0,10-4.477,10-10v-28.583h6.713c2.364,0,4.287,1.923,4.287,4.287
				v9.98c0,9.858,5.885,18.666,14.993,22.438c3.023,1.252,6.186,1.861,9.319,1.861c6.308,0,12.492-2.469,17.149-7.125l66.37-66.37
				c1.875-1.875,2.929-4.419,2.929-7.071C494.88,418.765,493.826,416.221,491.951,414.346z M280.12,34.142L338.978,93H280.12V34.142
				z M353.12,482h-326V20h233v83c0,5.523,4.477,10,10,10h83v266.417h-21c-5.523,0-10,4.477-10,10v64c0,5.523,4.477,10,10,10h21V482z
				 M411.438,480.716c-1.762,1.763-3.683,1.338-4.672,0.929c-0.988-0.41-2.646-1.468-2.646-3.961v-9.98
				c0-13.392-10.895-24.287-24.287-24.287H342.12v-44h37.713c13.392,0,24.287-10.895,24.287-24.287v-9.98
				c0-2.492,1.658-3.551,2.646-3.96c0.988-0.41,2.91-0.834,4.672,0.929l59.299,59.298L411.438,480.716z"  fill="#353C44" stroke="#353C44" stroke-width="0.6"/>
			<path d="M77.62,174h165.5c5.523,0,10-4.477,10-10s-4.477-10-10-10H77.62c-5.523,0-10,4.477-10,10S72.097,174,77.62,174z"  fill="#353C44" stroke="#353C44" stroke-width="0.6"/>
			<path d="M302.62,220h-225c-5.523,0-10,4.477-10,10s4.477,10,10,10h225c5.523,0,10-4.477,10-10S308.143,220,302.62,220z"  fill="#353C44" stroke="#353C44" stroke-width="0.6"/>
			<path d="M302.62,286h-225c-5.523,0-10,4.477-10,10s4.477,10,10,10h225c5.523,0,10-4.477,10-10S308.143,286,302.62,286z"  fill="#353C44" stroke="#353C44" stroke-width="0.6"/>
			<path d="M302.62,352h-225c-5.523,0-10,4.477-10,10s4.477,10,10,10h225c5.523,0,10-4.477,10-10S308.143,352,302.62,352z"  fill="#353C44" stroke="#353C44" stroke-width="0.6"/>
			<path d="M302.62,154h-22c-5.523,0-10,4.477-10,10s4.477,10,10,10h22c5.523,0,10-4.477,10-10S308.143,154,302.62,154z"  fill="#353C44" stroke="#353C44" stroke-width="0.6"/>
		</g>
	</g>
</g>
<g>
</g>
<g>
</g>
<g>
</g>
<g>
</g>
<g>
</g>
<g>
</g>
<g>
</g>
<g>
</g>
<g>
</g>
<g>
</g>
<g>
</g>
<g>
</g>
<g>
</g>
<g>
</g>
<g>
</g>
</svg>
