<svg width="20" height="20" viewBox="0 0 20 20" fill="none" xmlns="http://www.w3.org/2000/svg">
<mask id="mask0" mask-type="alpha" maskUnits="userSpaceOnUse" x="0" y="0" width="20" height="20">
<path d="M19 0H1C0.447715 0 0 0.447715 0 1V19C0 19.5523 0.447715 20 1 20H19C19.5523 20 20 19.5523 20 19V1C20 0.447715 19.5523 0 19 0Z" fill="white"/>
</mask>
<g mask="url(#mask0)">
<path d="M19 0H1C0.447715 0 0 0.447715 0 1V19C0 19.5523 0.447715 20 1 20H19C19.5523 20 20 19.5523 20 19V1C20 0.447715 19.5523 0 19 0Z" stroke="#353C44" stroke-width="4"/>
<path d="M19 6H1C0.447715 6 0 6.44772 0 7C0 7.55228 0.447715 8 1 8H19C19.5523 8 20 7.55228 20 7C20 6.44772 19.5523 6 19 6Z" fill="#353C44"/>
<path d="M19.0909 12.2727H0.909091C0.407014 12.2727 0 12.6797 0 13.1818C0 13.6839 0.407014 14.0909 0.909091 14.0909H19.0909C19.593 14.0909 20 13.6839 20 13.1818C20 12.6797 19.593 12.2727 19.0909 12.2727Z" fill="#353C44"/>
<path d="M0 0.999981L0 13.0909C0 13.6432 0.447715 14.0909 1 14.0909H6.27273C6.82501 14.0909 7.27273 13.6432 7.27273 13.0909L7.27273 0.999981C7.27273 0.447696 6.82501 -1.90735e-05 6.27273 -1.90735e-05H1C0.447715 -1.90735e-05 0 0.447696 0 0.999981Z" fill="#353C44"/>
<path d="M17.5763 0L5.48535 0C4.93307 0 4.48535 0.447715 4.48535 1V6.27273C4.48535 6.82501 4.93307 7.27273 5.48535 7.27273H17.5763C18.1285 7.27273 18.5763 6.82501 18.5763 6.27273V1C18.5763 0.447715 18.1285 0 17.5763 0Z" fill="#353C44"/>
<path d="M12 1L12 19C12 19.5523 12.4477 20 13 20C13.5523 20 14 19.5523 14 19L14 1C14 0.447716 13.5523 0 13 0C12.4477 0 12 0.447716 12 1Z" fill="#353C44"/>
<path d="M6 1L6 19C6 19.5523 6.44772 20 7 20C7.55228 20 8 19.5523 8 19L8 1C8 0.447716 7.55228 0 7 0C6.44772 0 6 0.447716 6 1Z" fill="#353C44"/>
</g>
</svg>
