<svg width="16" height="16" viewBox="0 0 16 16" fill="none" xmlns="http://www.w3.org/2000/svg">
<g clip-path="url(#clip0)">
<path d="M15.2726 0H9.45445C9.0528 0 8.72717 0.325625 8.72717 0.727281C8.72717 1.12894 9.0528 1.45456 9.45445 1.45456H13.5169L6.03114 8.94031C5.74711 9.22434 5.74711 9.68478 6.03114 9.96881C6.17311 10.1108 6.35923 10.1818 6.54536 10.1818C6.73148 10.1818 6.91764 10.1108 7.05964 9.96878L14.5454 2.48306V6.54547C14.5454 6.94712 14.871 7.27275 15.2727 7.27275C15.6743 7.27275 16 6.94712 16 6.54547V0.727281C15.9999 0.325625 15.6743 0 15.2726 0Z" fill="#868A8F"/>
<path d="M12.3636 7.27256C11.962 7.27256 11.6363 7.59819 11.6363 7.99984V14.5453H1.45453V4.36347H8C8.40166 4.36347 8.72728 4.03784 8.72728 3.63619C8.72728 3.23453 8.40166 2.90894 8 2.90894H0.727281C0.325625 2.90894 0 3.23456 0 3.63622V15.2726C0 15.6742 0.325625 15.9998 0.727281 15.9998H12.3637C12.7653 15.9998 13.0909 15.6742 13.0909 15.2726V7.99984C13.0909 7.59819 12.7653 7.27256 12.3636 7.27256Z" fill="#868A8F"/>
</g>
<defs>
<clipPath id="clip0">
<rect width="16" height="16" fill="white"/>
</clipPath>
</defs>
</svg>
