<svg width="20" height="20" viewBox="0 0 20 20" fill="none" xmlns="http://www.w3.org/2000/svg">
<path d="M1.75781 11.7191C0.788574 11.7191 0 10.9305 0 9.96124C0 8.992 0.788574 8.20343 1.75781 8.20343C2.7272 8.20343 3.51578 8.992 3.51578 9.96124C3.51578 10.9305 2.7272 11.7191 1.75781 11.7191ZM9.25812 3.9064C8.18115 3.9064 7.30484 3.03024 7.30484 1.95312C7.30484 0.87616 8.18115 0 9.25812 0C10.3351 0 11.2112 0.87616 11.2112 1.95312C11.2112 3.03024 10.3351 3.9064 9.25812 3.9064ZM9.25812 1.5625C9.04266 1.5625 8.86749 1.73782 8.86749 1.95312C8.86749 2.16858 9.04266 2.34375 9.25812 2.34375C9.47342 2.34375 9.64874 2.16858 9.64874 1.95312C9.64874 1.73782 9.47342 1.5625 9.25812 1.5625ZM3.92593 6.32828C3.4198 6.32828 2.94403 6.13129 2.58621 5.77332C2.22839 5.4155 2.03125 4.93973 2.03125 4.43375C2.03125 3.92761 2.22839 3.45184 2.58621 3.09402C2.94403 2.73621 3.4198 2.53906 3.92593 2.53906C4.43192 2.53906 4.90768 2.73621 5.26566 3.09402H5.2655H5.26566C5.62347 3.45184 5.82047 3.92761 5.82047 4.43375C5.82047 4.93973 5.62347 5.4155 5.2655 5.77347C4.90768 6.13129 4.43192 6.32828 3.92593 6.32828ZM3.92593 4.10172C3.87451 4.10172 3.77579 4.11423 3.6911 4.19891C3.60641 4.2836 3.5939 4.38232 3.5939 4.43375C3.5939 4.48517 3.60641 4.58389 3.6911 4.66843C3.77579 4.75311 3.87451 4.76578 3.92593 4.76578C3.9772 4.76578 4.07608 4.75311 4.16061 4.66858C4.2453 4.58389 4.25797 4.48517 4.25797 4.43375C4.25797 4.38232 4.2453 4.2836 4.16077 4.19891H4.16061C4.07608 4.11423 3.9772 4.10172 3.92593 4.10172ZM14.9419 6.4064C14.3628 6.4064 13.8184 6.18088 13.4088 5.77148C12.9993 5.36194 12.7737 4.8175 12.7737 4.23843C12.7737 3.65936 12.9993 3.11493 13.4088 2.70538C13.8184 2.29584 14.3628 2.07031 14.9419 2.07031C15.5209 2.07031 16.0654 2.29584 16.4749 2.70538C16.8843 3.11493 17.1098 3.65936 17.1098 4.23843C17.1098 4.8175 16.8843 5.36194 16.4749 5.77148C16.0654 6.18088 15.5209 6.4064 14.9419 6.4064ZM14.9419 3.63297C14.7801 3.63297 14.6281 3.69583 14.5137 3.81027C14.3994 3.92471 14.3364 4.07669 14.3364 4.23843C14.3364 4.40018 14.3993 4.55215 14.5137 4.66644C14.6281 4.78088 14.7801 4.8439 14.9419 4.8439C15.1036 4.8439 15.2556 4.78088 15.3699 4.6666C15.4843 4.55215 15.5473 4.40018 15.5473 4.23843C15.5473 4.07669 15.4843 3.92471 15.3699 3.81027C15.2556 3.69583 15.1036 3.63297 14.9419 3.63297ZM17.4614 12.4602C16.8112 12.4602 16.161 12.2127 15.666 11.7177C14.6759 10.7277 14.6759 9.11667 15.666 8.12668C16.656 7.13669 18.2669 7.13669 19.2569 8.12668C20.2469 9.11667 20.2469 10.7277 19.2569 11.7177C18.7619 12.2127 18.1117 12.4602 17.4614 12.4602ZM17.4614 8.94608C17.2113 8.94608 16.9612 9.04129 16.7709 9.23157C16.3901 9.61243 16.3901 10.2319 16.7709 10.6128C17.1516 10.9935 17.7711 10.9935 18.152 10.6128C18.5327 10.2319 18.5327 9.61243 18.152 9.23157C17.9616 9.04129 17.7115 8.94608 17.4614 8.94608V8.94608ZM14.9614 18.9445C14.2711 18.9445 13.5809 18.6819 13.0554 18.1564C12.0045 17.1056 12.0045 15.3955 13.0554 14.3446C14.1063 13.2936 15.8163 13.2936 16.8672 14.3446C17.9182 15.3955 17.9182 17.1056 16.8672 18.1564C16.3419 18.6819 15.6516 18.9445 14.9614 18.9445V18.9445ZM14.9614 15.1181C14.6713 15.1181 14.3813 15.2286 14.1603 15.4494C13.7187 15.8911 13.7187 16.6098 14.1603 17.0515C14.6021 17.4933 15.3207 17.4933 15.7625 17.0515C16.2041 16.6098 16.2041 15.8911 15.7625 15.4494C15.5415 15.2286 15.2515 15.1181 14.9614 15.1181ZM3.61328 17.1481C3.17825 17.1481 2.74307 16.9824 2.4118 16.6513C1.74927 15.9886 1.74927 14.9106 2.4118 14.248C3.07434 13.5855 4.15237 13.5855 4.81491 14.248C5.47745 14.9106 5.47745 15.9886 4.81491 16.6512C4.48364 16.9824 4.04846 17.1481 3.61328 17.1481ZM8.20328 20C7.90314 20 7.60315 19.8859 7.37473 19.6574C6.91772 19.2004 6.91772 18.4569 7.37457 18L7.37473 17.9999C7.83157 17.543 8.57513 17.543 9.03198 17.9999C9.48898 18.4569 9.48898 19.2004 9.03214 19.6573C8.80356 19.8857 8.50342 20 8.20328 20V20Z" fill="#353C44"/>
</svg>
