<svg width="20" height="20"  xmlns="http://www.w3.org/2000/svg" viewBox="0 0 20.1 20.1"><defs><style>.cls-1{fill:#353c44;stroke:#353c44;stroke-miterlimit:10;stroke-width:1.1px;}</style></defs><title>plan-01</title><path class="cls-1" d="M18.52.5h-17a1,1,0,0,0-1,1v17a1,1,0,0,0,1,1h17a1,1,0,0,0,1-1V1.5A1,1,0,0,0,18.52.5Zm.33,1V9.67h-3a.33.33,0,0,0-.26.52,1.85,1.85,0,0,1,.35,1.11,1.5,1.5,0,0,1-1.31,1.64,1.5,1.5,0,0,1-1.31-1.64,1.85,1.85,0,0,1,.35-1.11.33.33,0,0,0-.26-.52h-3V7.19a2.62,2.62,0,0,0,1,.19,2.15,2.15,0,0,0,2.29-2,2.15,2.15,0,0,0-2.29-2,2.62,2.62,0,0,0-1,.19V1.16H18.6a.33.33,0,0,1,.24.32ZM1.16,1.5a.33.33,0,0,1,.33-.33H9.67v3a.33.33,0,0,0,.52.26,1.85,1.85,0,0,1,1.11-.35,1.5,1.5,0,0,1,1.64,1.31A1.5,1.5,0,0,1,11.3,6.7a1.85,1.85,0,0,1-1.11-.35.33.33,0,0,0-.52.26v3H7.19a2.62,2.62,0,0,0,.19-1,2.15,2.15,0,0,0-2-2.29,2.15,2.15,0,0,0-2,2.29,2.62,2.62,0,0,0,.19,1H1.16Zm0,17V10.33h3a.33.33,0,0,0,.26-.52A1.85,1.85,0,0,1,4.1,8.69,1.5,1.5,0,0,1,5.41,7.05,1.5,1.5,0,0,1,6.72,8.69,1.85,1.85,0,0,1,6.37,9.8a.33.33,0,0,0,.26.52h3V12.8a2.62,2.62,0,0,0-1-.19,2.15,2.15,0,0,0-2.29,2,2.15,2.15,0,0,0,2.29,2,2.62,2.62,0,0,0,1-.19V18.9H1.48a.33.33,0,0,1-.32-.38Zm17.69,0a.33.33,0,0,1-.33.33H10.33v-3a.33.33,0,0,0-.52-.26,1.85,1.85,0,0,1-1.11.35,1.5,1.5,0,0,1-1.64-1.31A1.5,1.5,0,0,1,8.7,13.3a1.85,1.85,0,0,1,1.11.35.33.33,0,0,0,.52-.26v-3h2.48a2.62,2.62,0,0,0-.19,1,2.15,2.15,0,0,0,2,2.29,2.15,2.15,0,0,0,2-2.29,2.62,2.62,0,0,0-.19-1h2.48Z" transform="translate(0.03 0.05)"/></svg>