<svg width="20" height="20" viewBox="0 0 20 20" fill="none" xmlns="http://www.w3.org/2000/svg">
<g clip-path="url(#clip0)">
<path d="M19.8285 16.5138L16.4493 13.1346L18.1066 11.4773C18.2501 11.3337 18.3092 11.126 18.2625 10.9284C18.2158 10.7307 18.0702 10.5714 17.8775 10.5071L7.93386 7.19257C7.72335 7.12237 7.49116 7.17718 7.33425 7.33413C7.1773 7.49108 7.12249 7.72319 7.19269 7.93374L10.5073 17.8774C10.5715 18.0701 10.7309 18.2158 10.9285 18.2624C11.1261 18.3092 11.3339 18.2501 11.4775 18.1065L13.1348 16.4492L16.514 19.8284C16.6284 19.9428 16.7784 20 16.9283 20C17.0782 20 17.2282 19.9428 17.3426 19.8284L19.8285 17.3424C20.0573 17.1136 20.0573 16.7426 19.8285 16.5138ZM16.9282 18.5854L13.549 15.2062C13.3202 14.9774 12.9492 14.9774 12.7204 15.2062L11.3192 16.6074L8.67499 8.67491L16.6075 11.3191L15.2063 12.7203C14.9777 12.9489 14.9775 13.3201 15.2063 13.5489L18.5855 16.9282L16.9282 18.5854Z" fill="#868A8F" stroke="#868A8F" stroke-width="0.5"/>
<path d="M7.61719 4.6875C7.94078 4.6875 8.20312 4.42516 8.20312 4.10156V0.585938C8.20312 0.262344 7.94078 0 7.61719 0C7.29359 0 7.03125 0.262344 7.03125 0.585938V4.10156C7.03125 4.42516 7.29359 4.6875 7.61719 4.6875Z" fill="#868A8F" stroke="#868A8F" stroke-width="0.5"/>
<path d="M3.05958 2.23101C2.83079 2.00218 2.45978 2.00218 2.23095 2.23101C2.00212 2.45984 2.00212 2.83081 2.23095 3.05964L4.71688 5.54558C4.94567 5.77441 5.31673 5.77441 5.54552 5.54558C5.77435 5.31675 5.77435 4.94577 5.54552 4.71695L3.05958 2.23101Z" fill="#868A8F" stroke="#868A8F" stroke-width="0.5"/>
<path d="M4.71688 9.68877L2.23095 12.1747C2.00212 12.4035 2.00212 12.7745 2.23095 13.0033C2.45974 13.2322 2.83079 13.2322 3.05958 13.0033L5.54552 10.5174C5.77435 10.2886 5.77435 9.9176 5.54552 9.68877C5.31669 9.45994 4.94567 9.45994 4.71688 9.68877Z" fill="#868A8F" stroke="#868A8F" stroke-width="0.5"/>
<path d="M10.5176 5.54558L13.0035 3.05964C13.2324 2.83081 13.2324 2.45984 13.0035 2.23101C12.7747 2.00218 12.4037 2.00218 12.1749 2.23101L9.68896 4.71695C9.46013 4.94577 9.46013 5.31675 9.68896 5.54558C9.91774 5.77441 10.2888 5.77441 10.5176 5.54558Z" fill="#868A8F" stroke="#868A8F" stroke-width="0.5"/>
<path d="M4.6875 7.61719C4.6875 7.29359 4.42516 7.03125 4.10156 7.03125H0.585938C0.262344 7.03125 0 7.29359 0 7.61719C0 7.94078 0.262344 8.20312 0.585938 8.20312H4.10156C4.42516 8.20312 4.6875 7.94078 4.6875 7.61719Z" fill="#868A8F" stroke="#868A8F" stroke-width="0.5"/>
</g>
<defs>
<clipPath id="clip0">
<rect width="20" height="20" fill="white"/>
</clipPath>
</defs>
</svg>
