<svg width="22" height="22" viewBox="0 0 22 22" fill="none" xmlns="http://www.w3.org/2000/svg">
<path d="M1.50617 21.188H20.4469H20.4938V21.1864C20.6682 21.1747 20.8324 21.0985 20.956 20.9865C21.091 20.8641 21.19 20.687 21.19 20.4836V5.67697C21.19 5.47252 21.0993 5.27995 20.9463 5.14962L16.0654 0.976035C16.0467 0.958726 16.0281 0.946868 16.015 0.939491L16.015 0.939474C16.0099 0.935423 15.9992 0.926857 15.9861 0.91806L15.9762 0.911498L15.9656 0.906208C15.9628 0.904779 15.9599 0.903183 15.9523 0.898837L15.9514 0.898313C15.9445 0.894374 15.9334 0.888021 15.9204 0.881517L15.9083 0.875478L15.9021 0.873421C15.902 0.873378 15.9019 0.873333 15.9018 0.873288L15.9013 0.87303C15.8985 0.87163 15.8929 0.868806 15.8868 0.866005C15.8826 0.864066 15.8771 0.86168 15.8708 0.859202C15.8411 0.846306 15.8096 0.838456 15.7968 0.835519C15.7835 0.831124 15.7563 0.823165 15.7246 0.820914C15.7237 0.820797 15.7228 0.82068 15.7218 0.82056C15.6939 0.816978 15.6556 0.812075 15.6132 0.812075H1.50617C1.1214 0.812075 0.81 1.12348 0.81 1.50825V20.4918C0.81 20.8766 1.1214 21.188 1.50617 21.188ZM7.85255 2.19619H14.9129V7.13306H7.85255V2.19619ZM16.633 19.7915H5.36695V12.4054C5.36695 12.3599 5.40347 12.3238 5.44856 12.3238H16.5514C16.5969 12.3238 16.633 12.3603 16.633 12.4054V19.7915ZM2.20235 2.19619H6.46432V7.26545C6.46432 7.95886 7.02675 8.52129 7.72016 8.52129H15.0453C15.7387 8.52129 16.3011 7.95886 16.3011 7.26545V3.00729L19.7977 5.99903V19.7915H18.0213V12.4054C18.0213 11.5922 17.3597 10.9355 16.5514 10.9355H5.44856C4.63541 10.9355 3.97872 11.5971 3.97872 12.4054V19.7956H2.20235V2.19619Z" fill="#353C44" stroke="#353C44" stroke-width="0.38"/>
<path d="M10.358 4.38548H12.382V5.53704C12.382 5.92181 12.6934 6.23322 13.0781 6.23322C13.4629 6.23322 13.7743 5.92181 13.7743 5.53704V3.69343C13.7743 3.30866 13.4629 2.99726 13.0781 2.99726H10.358C9.97321 2.99726 9.66181 3.30866 9.66181 3.69343C9.66181 4.08121 9.98037 4.38548 10.358 4.38548Z" fill="#353C44" stroke="#353C44" stroke-width="0.38"/>
<path d="M13.5308 14.096H8.46906C8.0843 14.096 7.77289 14.4074 7.77289 14.7922C7.77289 15.177 8.08429 15.4884 8.46906 15.4884H13.5308C13.9156 15.4884 14.227 15.177 14.227 14.7922C14.227 14.4074 13.9156 14.096 13.5308 14.096Z" fill="#353C44" stroke="#353C44" stroke-width="0.38"/>
<path d="M13.5308 16.7668H8.46906C8.0843 16.7668 7.77289 17.0782 7.77289 17.463C7.77289 17.8477 8.0843 18.1591 8.46906 18.1591H13.5308C13.9156 18.1591 14.227 17.8477 14.227 17.463C14.227 17.0782 13.9156 16.7668 13.5308 16.7668Z" fill="#353C44" stroke="#353C44" stroke-width="0.38"/>
</svg>
