<svg width="20" height="20" viewBox="0 0 20 20" fill="none" xmlns="http://www.w3.org/2000/svg">
<rect x="1" y="1" width="18" height="18" rx="9" fill="white" stroke="#868A8F" stroke-width="2"/>
<path d="M10.8359 12.1484H9.20312L9.02344 4.125H11.0234L10.8359 12.1484ZM8.96875 14.6016C8.96875 14.3047 9.0651 14.0599 9.25781 13.8672C9.45052 13.6693 9.71354 13.5703 10.0469 13.5703C10.3802 13.5703 10.6432 13.6693 10.8359 13.8672C11.0286 14.0599 11.125 14.3047 11.125 14.6016C11.125 14.888 11.0312 15.1276 10.8438 15.3203C10.6562 15.513 10.3906 15.6094 10.0469 15.6094C9.70312 15.6094 9.4375 15.513 9.25 15.3203C9.0625 15.1276 8.96875 14.888 8.96875 14.6016Z" fill="#868A8F"/>
</svg>
