
<svg width="20" height="20" viewBox="0 0 20 20" fill="none" xmlns="http://www.w3.org/2000/svg">
<path d="M17.0934 11.0194C16.6067 10.1245 15.8907 9.54398 14.9454 9.27773C14.9382 9.27483 14.932 9.26968 14.9278 9.26303C14.9236 9.25639 14.9217 9.24858 14.9222 9.24075C14.9219 9.2339 14.9233 9.22708 14.9264 9.22097C14.9296 9.21487 14.9342 9.20969 14.94 9.20598C15.6438 8.81464 16.1847 8.25735 16.5639 7.54643C16.9458 6.82942 17.1368 5.96661 17.1368 4.95799C17.1368 3.29391 16.7158 2.05607 15.8775 1.23265C15.0391 0.409241 13.9231 0 12.5337 0H5.02945C5.01324 0 5 0.0169975 5 0.0380175V19.962C5 19.983 5.01298 20 5.02945 20H12.1214C13.1198 20 13.9809 19.8543 14.7049 19.5629C15.4303 19.272 16.0206 18.8793 16.4852 18.3863C16.9499 17.8932 17.2887 17.305 17.5059 16.6216C17.7231 15.9439 17.8315 15.2099 17.8315 14.4257C17.8321 13.0585 17.584 11.927 17.0934 11.0194ZM7.72105 2.87091C7.72105 2.84989 7.73403 2.8329 7.75051 2.8329H12.1551C12.8941 2.8329 13.4593 3.0405 13.8503 3.44987C14.2414 3.85924 14.4368 4.57094 14.4368 5.58016C14.4368 6.47779 14.2196 7.16211 13.7848 7.64427C13.35 8.12643 12.8069 8.36206 12.1547 8.36206H7.75025C7.73403 8.36206 7.72079 8.34507 7.72079 8.32405L7.72105 2.87091ZM14.4443 16.3107C13.992 16.8656 13.3491 17.1412 12.5231 17.1412H7.75025C7.73403 17.1412 7.72079 17.1242 7.72079 17.1031V10.9217C7.72079 10.9007 7.73377 10.8837 7.75025 10.8837H12.5228C13.3488 10.8837 13.9835 11.1418 14.4441 11.6797C14.9047 12.2177 15.1309 12.9749 15.1309 13.9673C15.1311 14.9764 14.9004 15.7614 14.4443 16.3107V16.3107Z" fill="#353C44"/>
</svg>
