<svg width="22" height="19" viewBox="0 0 22 19" fill="none" xmlns="http://www.w3.org/2000/svg">
<path d="M4.85367 7.50821H4.85369V7.50584V3.76969C4.94897 2.92802 5.69774 2.31467 6.54256 2.38802L6.54251 2.38858H6.55553C6.97929 2.38858 7.32281 2.04506 7.32281 1.6213C7.32281 1.19889 6.98147 0.856209 6.55958 0.854029C4.86779 0.768253 3.42209 2.06101 3.3194 3.75232L3.31912 3.75231V3.76141V7.49757C3.22384 8.33923 2.47508 8.95258 1.63026 8.87924L1.6303 8.87868H1.61728C1.19352 8.87868 0.85 9.2222 0.85 9.64596C0.85 10.0697 1.19352 10.4132 1.61728 10.4132V10.4138L1.63026 10.4127C2.47508 10.3393 3.22384 10.9527 3.31912 11.7943V15.5305H3.31885L3.3194 15.5396C3.42209 17.2309 4.86778 18.5237 6.55956 18.4379C6.98147 18.4357 7.32281 18.093 7.32281 17.6706C7.32281 17.2469 6.97929 16.9033 6.55553 16.9033V16.9028L6.54256 16.9039C5.69773 16.9772 4.94897 16.3639 4.85369 15.5222V11.7861H4.85371L4.85367 11.7837C4.84049 10.9484 4.45592 10.1663 3.81129 9.64595C4.45592 9.12564 4.84049 8.34354 4.85367 7.50821Z" fill="#353C44" stroke="#353C44" stroke-width="0.3"/>
<path d="M18.1887 9.64596C17.544 10.1663 17.1595 10.9484 17.1463 11.7837H17.1463V11.7861V15.5222C17.051 16.3639 16.3022 16.9772 15.4574 16.9039L15.4575 16.9033H15.4444C15.0207 16.9033 14.6771 17.2469 14.6771 17.6706C14.6771 18.093 15.0185 18.4357 15.4404 18.4379C17.1322 18.5237 18.5779 17.2309 18.6806 15.5396L18.6808 15.5396V15.5305V11.7943C18.7761 10.9527 19.5249 10.3393 20.3697 10.4127L20.3697 10.4132H20.3827C20.8064 10.4132 21.15 10.0697 21.15 9.64596C21.15 9.2222 20.8064 8.87868 20.3827 8.87868V8.87811L20.3697 8.87924C19.5249 8.95258 18.7761 8.33924 18.6808 7.49757V3.76141H18.6811L18.6806 3.75232C18.5779 2.06101 17.1322 0.768253 15.4404 0.854029C15.0185 0.856209 14.6771 1.19889 14.6771 1.6213C14.6771 2.04506 15.0207 2.38858 15.4444 2.38858V2.38915L15.4574 2.38802C16.3022 2.31467 17.051 2.92802 17.1463 3.76969V7.50584H17.1463L17.1463 7.50821C17.1595 8.34354 17.544 9.12564 18.1887 9.64596Z" fill="#353C44" stroke="#353C44" stroke-width="0.3"/>
<path d="M10.6173 14.1167C11.041 14.1167 11.3846 13.7732 11.3846 13.3495C11.3846 12.9257 11.041 12.5822 10.6173 12.5822C10.1935 12.5822 9.85 12.9257 9.85 13.3495C9.85 13.7732 10.1935 14.1167 10.6173 14.1167Z" fill="#353C44" stroke="#353C44" stroke-width="0.3"/>
</svg>
