<svg width="20" height="20" viewBox="0 0 20 20" fill="none" xmlns="http://www.w3.org/2000/svg">
<path d="M10 0C4.47254 0 0 4.47293 0 10C0 15.5275 4.47293 20 10 20C15.5275 20 20 15.5271 20 10C20 4.47254 15.5271 0 10 0ZM10 18.4375C5.33621 18.4375 1.5625 14.6635 1.5625 10C1.5625 5.33621 5.33652 1.5625 10 1.5625C14.6638 1.5625 18.4375 5.33652 18.4375 10C18.4375 14.6638 14.6635 18.4375 10 18.4375Z" fill="#BB7777"/>
<rect x="5.58057" y="6.64124" width="1.5" height="11" rx="0.75" transform="rotate(-45 5.58057 6.64124)" fill="#BB7777"/>
<rect x="6.64136" y="14.4194" width="1.5" height="11" rx="0.75" transform="rotate(-135 6.64136 14.4194)" fill="#BB7777"/>
</svg>
