<svg width="22" height="20" viewBox="0 0 22 20" fill="none" xmlns="http://www.w3.org/2000/svg">
<path d="M0.942448 10.1528L0.902761 10.2003L0.941862 10.2483L2.77648 12.4994L2.82272 12.5562L2.88057 12.5113L3.80224 11.7967L3.86296 11.7496L3.81442 11.69L3.15258 10.8779H9.92767H10.0027V10.8029V9.6545V9.5795H9.92767H3.13592L3.80932 8.77366L3.8586 8.71468L3.79844 8.66686L2.8858 7.94127L2.82851 7.89572L2.78158 7.95189L0.942448 10.1528Z" fill="#353C44" stroke="#353C44" stroke-width="0.15"/>
<path d="M18.2015 8.66682L18.1414 8.71464L18.1906 8.77362L18.864 9.57954H12.0723H11.9973V9.65454V10.803V10.878H12.0723H18.8473L18.1855 11.69L18.137 11.7496L18.1977 11.7967L19.1194 12.5113L19.1773 12.5562L19.2235 12.4994L21.0581 10.2483L21.0972 10.2003L21.0575 10.1528L19.2184 7.95189L19.1715 7.89572L19.1142 7.94127L18.2015 8.66682Z" fill="#353C44" stroke="#353C44" stroke-width="0.15"/>
<rect x="8.68921" width="1.53782" height="20" rx="0.768911" fill="#353C44"/>
<rect x="11.7646" width="1.53782" height="20" rx="0.768911" fill="#353C44"/>
</svg>
