
<svg  width="22" height="20" fill="none" xmlns="http://www.w3.org/2000/svg"
	 viewBox="0 0 477.867 477.867" >
<g>
	<g>
		<path d="M460.8,170.667h-28.894c-2.387-6.786-5.133-13.44-8.226-19.934l20.48-20.48c6.663-6.664,6.663-17.468,0-24.132
			l-72.482-72.346c-6.665-6.663-17.468-6.663-24.132,0l-20.48,20.48c-6.473-3.108-13.104-5.877-19.866-8.294V17.067
			C307.2,7.641,299.559,0,290.133,0h-102.4c-9.426,0-17.067,7.641-17.067,17.067v28.894c-6.789,2.392-13.449,5.138-19.951,8.226
			l-20.48-20.48c-6.665-6.662-17.468-6.662-24.132,0l-72.329,72.482c-6.663,6.664-6.663,17.468,0,24.132l20.48,20.48
			c-3.115,6.47-5.883,13.102-8.294,19.866H17.067C7.641,170.667,0,178.308,0,187.733v102.4c0,9.426,7.641,17.067,17.067,17.067
			h28.894c2.387,6.786,5.132,13.44,8.226,19.934l-20.48,20.48c-6.662,6.665-6.662,17.468,0,24.132l72.414,72.414
			c6.665,6.662,17.468,6.662,24.132,0l20.48-20.48c6.497,3.087,13.151,5.833,19.934,8.226V460.8c0,9.426,7.641,17.067,17.067,17.067
			h102.4c9.426,0,17.067-7.641,17.067-17.067v-28.894c6.789-2.392,13.449-5.138,19.951-8.226l20.48,20.48
			c6.665,6.662,17.468,6.662,24.132,0l72.414-72.414c6.662-6.664,6.662-17.468,0-24.132l-20.48-20.48
			c3.088-6.494,5.828-13.148,8.209-19.934H460.8c9.426,0,17.067-7.641,17.067-17.067v-102.4
			C477.867,178.308,470.226,170.667,460.8,170.667z M443.733,273.067h-24.32c-7.631,0-14.335,5.066-16.418,12.407
			c-3.584,12.744-8.647,25.024-15.087,36.591c-3.769,6.687-2.609,15.067,2.833,20.48l17.067,17.152l-48.196,48.196l-17.152-17.067
			c-5.413-5.442-13.793-6.602-20.48-2.833c-11.563,6.434-23.838,11.497-36.574,15.087c-7.348,2.077-12.422,8.782-12.425,16.418
			v24.235H204.8v-24.32c-0.002-7.636-5.076-14.341-12.425-16.418c-12.736-3.59-25.01-8.653-36.574-15.087
			c-6.687-3.769-15.067-2.609-20.48,2.833l-17.067,17.067l-48.282-48.196L87.04,342.46c5.442-5.413,6.602-13.793,2.833-20.48
			c-6.44-11.566-11.503-23.847-15.087-36.591c-2.106-7.277-8.757-12.295-16.333-12.322h-24.32V204.8h24.32
			c7.631,0,14.335-5.066,16.418-12.407c3.584-12.744,8.647-25.024,15.087-36.591c3.769-6.687,2.609-15.067-2.833-20.48
			l-17.067-17.067l48.196-48.282l17.067,17.067c5.413,5.442,13.793,6.602,20.48,2.833c11.563-6.434,23.838-11.497,36.574-15.087
			c7.318-2.068,12.384-8.729,12.425-16.333v-24.32h68.267v24.32c0.002,7.636,5.076,14.341,12.425,16.418
			c12.736,3.59,25.01,8.653,36.574,15.087c6.687,3.769,15.067,2.609,20.48-2.833l17.152-17.067l48.196,48.196l-17.067,17.067
			c-5.442,5.413-6.602,13.793-2.833,20.48c6.44,11.566,11.503,23.847,15.087,36.591c2.083,7.341,8.787,12.407,16.418,12.407h24.235
			V273.067z" fill="#353C44"/>
	</g>
</g>
<g>
	<g>
		<path d="M238.933,119.467c-65.98,0-119.467,53.487-119.467,119.467S172.954,358.4,238.933,358.4S358.4,304.913,358.4,238.933
			C358.325,172.985,304.882,119.542,238.933,119.467z M238.933,324.267c-47.128,0-85.333-38.205-85.333-85.333
			s38.205-85.333,85.333-85.333s85.333,38.205,85.333,85.333C324.21,286.038,286.038,324.21,238.933,324.267z" fill="#353C44"/>
	</g>
</g>
</svg>
