<svg width="22" height="22" viewBox="0 0 22 22" fill="none" xmlns="http://www.w3.org/2000/svg">
<path d="M19.4591 13.5511C19.184 13.5511 18.961 13.7752 18.961 14.0517V18.4966C18.96 19.3258 18.2917 19.9977 17.4667 19.9985H3.4905C2.66552 19.9977 1.99717 19.3258 1.9962 18.4966V5.45108C1.99717 4.62213 2.66552 3.95021 3.4905 3.94923H7.91309C8.18821 3.94923 8.41119 3.72513 8.41119 3.44861C8.41119 3.1723 8.18821 2.948 7.91309 2.948H3.4905C2.11567 2.94956 1.00156 4.0693 1 5.45108V18.4968C1.00156 19.8786 2.11567 20.9984 3.4905 20.9999H17.4667C18.8415 20.9984 19.9556 19.8786 19.9572 18.4968V14.0517C19.9572 13.7752 19.7342 13.5511 19.4591 13.5511Z" fill="#868A8F" stroke="#868A8F" stroke-width="0.8"/>
<path d="M19.7599 1.65991C18.8845 0.780112 17.4653 0.780112 16.5899 1.65991L7.70352 10.5912C7.64261 10.6524 7.59864 10.7283 7.57568 10.8116L6.40709 15.0518C6.35903 15.2256 6.40787 15.4118 6.53473 15.5395C6.66178 15.667 6.84702 15.7161 7.01999 15.668L11.2389 14.4933C11.3217 14.4702 11.3972 14.426 11.4581 14.3648L20.3444 5.43331C21.2184 4.55292 21.2184 3.12773 20.3444 2.24735L19.7599 1.65991ZM8.78883 10.9166L16.0617 3.60684L18.4072 5.96423L11.1342 13.274L8.78883 10.9166ZM8.3203 11.8615L10.1942 13.7451L7.60214 14.4669L8.3203 11.8615ZM19.64 4.7254L19.1118 5.25633L16.766 2.89874L17.2945 2.36781C17.7807 1.87912 18.5691 1.87912 19.0553 2.36781L19.64 2.95525C20.1255 3.44453 20.1255 4.23632 19.64 4.7254Z" fill="#868A8F" stroke="#868A8F" stroke-width="0.8"/>
</svg>
