
<svg width="20" height="20" viewBox="0 0 20 20" fill="none" xmlns="http://www.w3.org/2000/svg">
<path d="M19.1666 2.23299H8.29706C7.93571 0.944378 6.7923 0 5.44049 0C4.08869 0 2.94534 0.944321 2.58393 2.23299H0.833354C0.373092 2.23299 0 2.62177 0 3.1014C0 3.58102 0.373092 3.96981 0.833354 3.96981H2.58393C2.94528 5.25842 4.08869 6.20274 5.44049 6.20274C6.7923 6.20274 7.93565 5.25842 8.29706 3.96981H19.1666C19.6269 3.96981 20 3.58102 20 3.1014C20 2.62177 19.6269 2.23299 19.1666 2.23299ZM6.74993 3.1014C6.74993 3.85377 6.16254 4.46592 5.44049 4.46592C4.71845 4.46592 4.13106 3.85382 4.13106 3.1014C4.13106 2.34897 4.71845 1.73688 5.44049 1.73688C6.16254 1.73688 6.74993 2.34897 6.74993 3.1014Z" fill="#353C44"/>
<path d="M19.1666 9.13161H12.8565C12.4951 7.843 11.3517 6.89868 9.99992 6.89868C8.64812 6.89868 7.50476 7.843 7.14335 9.13161H0.833354C0.373092 9.13161 0 9.5204 0 10C0 10.4796 0.373092 10.8684 0.833354 10.8684H7.14341C7.50476 12.157 8.64817 13.1014 9.99997 13.1014C11.3518 13.1014 12.4951 12.157 12.8565 10.8684H19.1666C19.6269 10.8684 20 10.4796 20 10C20 9.5204 19.6269 9.13161 19.1666 9.13161V9.13161ZM11.3093 10C11.3093 10.7524 10.722 11.3645 9.99992 11.3645C9.27787 11.3645 8.69049 10.7524 8.69049 10C8.69049 9.24766 9.27787 8.63551 9.99992 8.63551C10.722 8.63551 11.3093 9.24766 11.3093 10Z" fill="#353C44"/>
<path d="M19.1666 16.0302H17.416C17.0546 14.7416 15.9112 13.7972 14.5594 13.7972C13.2076 13.7972 12.0642 14.7416 11.7028 16.0302H0.833354C0.373092 16.0302 0 16.419 0 16.8986C0 17.3782 0.373092 17.767 0.833354 17.767H11.7028C12.0642 19.0556 13.2076 20 14.5594 20C15.9112 20 17.0546 19.0557 17.416 17.767H19.1666C19.6269 17.767 19.9999 17.3782 19.9999 16.8986C19.9999 16.419 19.6269 16.0302 19.1666 16.0302ZM15.8688 16.8986C15.8688 17.651 15.2814 18.2631 14.5594 18.2631C13.8373 18.2631 13.25 17.651 13.25 16.8986C13.25 16.1462 13.8373 15.5341 14.5594 15.5341C15.2814 15.5341 15.8688 16.1462 15.8688 16.8986Z" fill="#353C44"/>
</svg>
