<svg width="16" height="16" viewBox="0 0 16 16" fill="none" xmlns="http://www.w3.org/2000/svg">
<path d="M11.0494 5.51646L9.79692 5.47052L9.52539 12.8856L10.7778 12.9314L11.0494 5.51646Z" fill="#CBDCE4"/>
<path d="M8.62678 5.49347H7.37354V12.9086H8.62678V5.49347Z" fill="#CBDCE4"/>
<path d="M6.47465 12.8854L6.20312 5.47028L4.95068 5.51624L5.22225 12.9314L6.47465 12.8854Z" fill="#CBDCE4"/>
<path d="M0.543213 2.4021V3.65535H1.84912L2.88512 15.4283C2.91353 15.7518 3.18446 16 3.50924 16H12.4699C12.7947 16 13.0658 15.7517 13.094 15.4281L14.13 3.65535H15.457V2.4021H0.543213ZM11.8959 14.7468H4.08306L3.10718 3.65535H12.872L11.8959 14.7468Z" fill="#CBDCE4"/>
<path d="M10.0471 0H5.95306C5.37719 0 4.90869 0.4685 4.90869 1.04437V3.02872H6.16194V1.25325H9.83818V3.02872H11.0914V1.04437C11.0914 0.4685 10.6229 0 10.0471 0Z" fill="#CBDCE4"/>
</svg>
