
<svg width="14" height="11" viewBox="0 0 14 11" fill="none" xmlns="http://www.w3.org/2000/svg">
<path d="M13.058 1.33984H0.177258C0.130247 1.33984 0.0851602 1.32132 0.0519178 1.28836C0.0186754 1.25539 0 1.21068 0 1.16406L0 0.460938C0 0.414317 0.0186754 0.369607 0.0519178 0.336641C0.0851602 0.303676 0.130247 0.285156 0.177258 0.285156H13.058C13.105 0.285156 13.1501 0.303676 13.1834 0.336641C13.2166 0.369607 13.2353 0.414317 13.2353 0.460938V1.16406C13.2353 1.21068 13.2166 1.25539 13.1834 1.28836C13.1501 1.32132 13.105 1.33984 13.058 1.33984ZM13.058 6.02734H0.177258C0.130247 6.02734 0.0851602 6.00882 0.0519178 5.97586C0.0186754 5.94289 0 5.89818 0 5.85156L0 5.14844C0 5.10182 0.0186754 5.05711 0.0519178 5.02414C0.0851602 4.99118 0.130247 4.97266 0.177258 4.97266H13.058C13.105 4.97266 13.1501 4.99118 13.1834 5.02414C13.2166 5.05711 13.2353 5.10182 13.2353 5.14844V5.85156C13.2353 5.89818 13.2166 5.94289 13.1834 5.97586C13.1501 6.00882 13.105 6.02734 13.058 6.02734ZM13.058 10.7148H0.177258C0.130247 10.7148 0.0851602 10.6963 0.0519178 10.6634C0.0186754 10.6304 0 10.5857 0 10.5391L0 9.83594C0 9.78932 0.0186754 9.74461 0.0519178 9.71164C0.0851602 9.67868 0.130247 9.66016 0.177258 9.66016H13.058C13.105 9.66016 13.1501 9.67868 13.1834 9.71164C13.2166 9.74461 13.2353 9.78932 13.2353 9.83594V10.5391C13.2353 10.5857 13.2166 10.6304 13.1834 10.6634C13.1501 10.6963 13.105 10.7148 13.058 10.7148Z" fill="#353C44"/>
</svg>
