<svg width="25" height="22" viewBox="0 0 25 22" fill="none" xmlns="http://www.w3.org/2000/svg">
<path d="M12.023 10.187L17.5746 2.36966C17.7793 2.12234 17.8233 1.77704 17.6874 1.48521C17.5522 1.1841 17.253 0.993403 16.9265 1.00017H1.84965C1.52305 0.993403 1.22384 1.18415 1.08877 1.48527C0.944915 1.77169 0.977873 2.11649 1.1733 2.36966L6.6404 10.187C6.79667 10.4438 6.8751 10.7414 6.86587 11.0429V19.8589C6.87553 20.1546 7.03535 20.4243 7.2886 20.5721C7.43753 20.675 7.61586 20.7252 7.79586 20.7148C7.9115 20.7242 8.02764 20.7046 8.13401 20.6577L11.1775 19.4594C11.4924 19.3437 11.6896 19.0265 11.6566 18.6891V11.0429C11.6866 10.7257 11.8148 10.4261 12.023 10.187ZM11.093 9.50231C10.7585 9.94798 10.5623 10.4842 10.5294 11.0429V18.4609L7.99312 19.4595V11.0429C8.0182 10.5015 7.85902 9.96775 7.54223 9.53082L2.38506 2.14145H16.391L11.093 9.50231Z" fill="#353C44" stroke="#353C44" stroke-width="0.6"/>
<path d="M18.6738 10.1585C15.7167 10.1428 13.3069 12.557 13.2913 15.5508C13.2758 18.5446 15.6604 20.9842 18.6176 21C21.5747 21.0157 23.9845 18.6015 24 15.6077C24.0001 15.5887 24.0001 15.5697 24 15.5508C24 12.5727 21.6153 10.1585 18.6738 10.1585ZM18.6738 19.8303C16.3392 19.8461 14.4341 17.9429 14.4185 15.5794C14.4029 13.2159 16.2829 11.2871 18.6174 11.2714C20.9519 11.2556 22.857 13.1589 22.8726 15.5223C22.8727 15.5318 22.8727 15.5413 22.8727 15.5508C22.8728 17.9032 20.9973 19.8147 18.6738 19.8303Z" fill="#353C44" stroke="#353C44" stroke-width="0.6"/>
<path d="M20.3083 14.9801H19.2655V13.9531C19.2655 13.6379 19.0132 13.3824 18.7019 13.3824C18.3906 13.3824 18.1383 13.6379 18.1383 13.9531V14.9801H17.0392C16.7279 14.9801 16.4756 15.2356 16.4756 15.5508C16.4756 15.8659 16.7279 16.1214 17.0392 16.1214H18.1383V17.234C18.1383 17.5492 18.3906 17.8046 18.7019 17.8046C19.0132 17.8046 19.2655 17.5492 19.2655 17.234V16.1214H20.3083C20.6195 16.1214 20.8719 15.8659 20.8719 15.5508C20.8719 15.2356 20.6195 14.9801 20.3083 14.9801Z" fill="#353C44" stroke="#353C44" stroke-width="0.6"/>
</svg>
