<svg width="24" height="22" viewBox="0 0 24 22" fill="none" xmlns="http://www.w3.org/2000/svg">
<path d="M12.1772 10.3188L17.8065 2.38931C18.014 2.13844 18.0587 1.78819 17.9208 1.49217C17.7838 1.18674 17.4804 0.993308 17.1493 1.00018H1.86154C1.53036 0.993308 1.22697 1.1868 1.09002 1.49223C0.944145 1.78276 0.977563 2.13251 1.17572 2.38931L6.71931 10.3188C6.87776 10.5793 6.95728 10.8812 6.94793 11.1871V20.1295C6.95772 20.4295 7.11978 20.7031 7.37657 20.853C7.52758 20.9573 7.7084 21.0082 7.89092 20.9977C8.00819 21.0072 8.12594 20.9874 8.2338 20.9398L11.3199 19.7243C11.6392 19.6069 11.8391 19.2852 11.8057 18.9429V11.1871C11.8361 10.8652 11.9661 10.5614 12.1772 10.3188ZM11.2342 9.62432C10.895 10.0764 10.6961 10.6203 10.6627 11.1871V18.7114L8.09094 19.7243V11.1871C8.11637 10.6378 7.95497 10.0964 7.63375 9.65323L2.40444 2.15783H16.6063L11.2342 9.62432Z" fill="#353C44" stroke="#353C44" stroke-width="0.6"/>
<path d="M12.9938 21.0063L12.9936 21.0061C12.8688 20.8811 12.8205 20.6986 12.8679 20.528L12.9938 21.0063ZM12.9938 21.0063C13.1189 21.1312 13.3014 21.1794 13.4719 21.1322L13.4719 21.1322L16.3591 20.3323C16.4408 20.3097 16.5152 20.2664 16.5752 20.2064L16.4692 20.1003M12.9938 21.0063L16.4692 20.1003M16.4692 20.1003L16.5752 20.2064L22.6566 14.1247L22.6567 14.1246C23.3133 13.4666 23.3133 12.4014 22.6567 11.7434L22.6566 11.7432L22.2566 11.3432C21.5989 10.6856 20.5327 10.6856 19.8751 11.3432L13.7936 17.4247C13.7336 17.4847 13.6902 17.5591 13.6676 17.6408L12.8679 20.5279L16.4692 20.1003ZM21.707 13.686L20.3138 12.2929L20.5693 12.0374L20.5694 12.0374C20.8435 11.7632 21.2881 11.7632 21.5623 12.0374L21.5623 12.0374L21.9623 12.4372C21.9623 12.4373 21.9624 12.4373 21.9624 12.4374C22.2361 12.712 22.2361 13.1563 21.9623 13.4307L21.707 13.686ZM16.2475 19.1454L14.8545 17.7524L19.6196 12.9871L21.0127 14.3802L16.2475 19.1454ZM14.0456 19.9545L14.3976 18.6838L15.3162 19.6025L14.0456 19.9545Z" fill="#353C44" stroke="#353C44" stroke-width="0.3"/>
</svg>
