<svg width="20" height="20" viewBox="0 0 20 20" fill="none" xmlns="http://www.w3.org/2000/svg">
<mask id="path-1-inside-1" fill="white">
<rect width="20" height="20" rx="1"/>
</mask>
<rect width="20" height="20" rx="1" stroke="#353C44" stroke-width="4" mask="url(#path-1-inside-1)"/>
<rect y="6" width="20" height="2" rx="1" fill="#353C44"/>
<rect y="12.2727" width="20" height="1.81818" rx="0.909091" fill="#353C44"/>
<path d="M1 19C0.447715 19 0 18.5523 0 18L0 0.999999C0 0.447715 0.447715 -2.40726e-07 1 -2.40726e-07H7C7.55229 -2.40726e-07 8 0.447715 8 1L8 18C8 18.5523 7.55229 19 7 19H1Z" fill="#353C44"/>
<rect x="11" y="20" width="20" height="2" rx="1" transform="rotate(-90 11 20)" fill="#353C44"/>
<rect x="6" y="20" width="20" height="2" rx="1" transform="rotate(-90 6 20)" fill="#353C44"/>
</svg>
