<svg width="20" height="20" viewBox="0 0 20 20" fill="none" xmlns="http://www.w3.org/2000/svg">
<path d="M19.2857 5.00001H15.7143V0.714299C15.7143 0.319796 15.3945 0 15 0H5.00001C4.60551 0 4.28571 0.319796 4.28571 0.714299V5.00001H0.714299C0.319796 5.00001 0 5.31981 0 5.71427V15C0 15.3945 0.319796 15.7143 0.714299 15.7143H4.28571V19.2857C4.28571 19.6802 4.60551 20 5.00001 20H15C15.3945 20 15.7143 19.6802 15.7143 19.2857V15.7143H19.2857C19.6802 15.7143 20 15.3945 20 15V5.71427C20 5.31981 19.6802 5.00001 19.2857 5.00001ZM5.71427 1.42856H14.2857V4.99997H5.71427V1.42856V1.42856ZM14.2857 18.5714H5.71427V12.1428H14.2857V18.5714ZM18.5714 14.2857H15.7142V12.1428H16.4285C16.823 12.1428 17.1428 11.823 17.1428 11.4285C17.1428 11.034 16.823 10.7143 16.4285 10.7143H3.57141C3.17691 10.7143 2.85711 11.0341 2.85711 11.4286C2.85711 11.8231 3.17691 12.1429 3.57141 12.1429H4.28571V14.2857H1.42856V6.42857H18.5714V14.2857Z" fill="#353C44"/>
<path d="M17.1427 7.85706H16.4284C16.0339 7.85706 15.7141 8.17685 15.7141 8.57135C15.7141 8.96586 16.0339 9.28565 16.4284 9.28565H17.1427C17.5372 9.28565 17.857 8.96586 17.857 8.57135C17.857 8.17685 17.5372 7.85706 17.1427 7.85706Z" fill="#353C44"/>
<path d="M12.1428 13.5714H7.85712C7.46262 13.5714 7.14282 13.8912 7.14282 14.2857C7.14282 14.6802 7.46262 15 7.85712 15H12.1428C12.5373 15 12.8571 14.6802 12.8571 14.2857C12.8571 13.8912 12.5373 13.5714 12.1428 13.5714Z" fill="#353C44"/>
<path d="M12.1428 15.7142H7.85712C7.46262 15.7142 7.14282 16.034 7.14282 16.4285C7.14282 16.823 7.46262 17.1428 7.85712 17.1428H12.1428C12.5373 17.1428 12.8571 16.823 12.8571 16.4285C12.8571 16.034 12.5373 15.7142 12.1428 15.7142Z" fill="#353C44"/>
</svg>
