<svg width="18" height="18" viewBox="0 0 18 18" fill="none" xmlns="http://www.w3.org/2000/svg">
<g clip-path="url(#clip0)">
<path d="M17.8071 4.36359L13.6364 0.192867C13.6363 0.192832 13.6363 0.192762 13.6362 0.192727C13.5164 0.0729844 13.3487 0 13.1707 0C12.6428 0 1.16135 0 0.658547 0C0.294855 0 0 0.294855 0 0.658547V17.3415C0 17.7051 0.294855 18 0.658547 18C1.45178 18 16.5616 18 17.3415 18C17.7052 18 18 17.7051 18 17.3415V4.82927C18 4.65462 17.9306 4.48713 17.8071 4.36359ZM5.48782 1.31706H12.5122V5.21318H5.48782V1.31706ZM14.0783 16.6829H3.92168V11.1422H14.0783V16.6829ZM16.6829 16.6829H15.3954V10.4837C15.3954 10.12 15.1006 9.82519 14.7369 9.82519H3.26313C2.89944 9.82519 2.60459 10.12 2.60459 10.4837V16.6829H1.31706V1.31706H4.17073V5.87173C4.17073 6.23542 4.46558 6.53027 4.82927 6.53027H13.1707C13.5344 6.53027 13.8293 6.23542 13.8293 5.87173V2.24838L16.6829 5.10205V16.6829Z" fill="#77BB77"/>
<path d="M10.8814 1.93411C10.5178 1.93411 10.2229 2.22897 10.2229 2.59266V3.9376C10.2229 4.30132 10.5177 4.59614 10.8814 4.59614C11.2451 4.59614 11.54 4.30129 11.54 3.9376V2.59266C11.54 2.22897 11.2451 1.93411 10.8814 1.93411Z" fill="#77BB77"/>
</g>
<defs>
<clipPath id="clip0">
<rect width="18" height="18" fill="white"/>
</clipPath>
</defs>
</svg>
