<svg width="20" height="20" viewBox="0 0 20 20" fill="none" xmlns="http://www.w3.org/2000/svg">
<path d="M14.9999 7.50004C14.9999 3.35832 11.6418 0.00012207 7.49998 0.00012207C3.35823 0.00012207 0 3.35832 0 7.50004C0 11.6418 3.35823 14.9998 7.49998 14.9998C11.6418 14.9998 14.9999 11.6418 14.9999 7.50004ZM7.49998 13.1248C4.39818 13.1248 1.87505 10.6019 1.87505 7.50008C1.87505 4.39831 4.39818 1.87519 7.49998 1.87519C10.6017 1.87519 13.125 4.39831 13.125 7.50008C13.125 10.6019 10.6017 13.1248 7.49998 13.1248Z" fill="#353C44"/>
<path d="M19.4506 16.7994L14.8623 12.2108C14.1787 13.274 13.2739 14.1783 12.2107 14.862L16.7993 19.4506C17.5319 20.183 18.7196 20.183 19.4506 19.4506C20.1832 18.7194 20.1832 17.5317 19.4506 16.7994Z" fill="#353C44"/>
</svg>
