<svg width="22" height="22" viewBox="0 0 22 22" fill="none" xmlns="http://www.w3.org/2000/svg">
<path d="M20.8285 17.5138L17.4493 14.1346L19.1066 12.4773C19.2501 12.3337 19.3092 12.126 19.2625 11.9284C19.2158 11.7307 19.0702 11.5714 18.8775 11.5071L8.93386 8.19257C8.72335 8.12237 8.49116 8.17718 8.33425 8.33413C8.1773 8.49108 8.12249 8.72319 8.19269 8.93374L11.5073 18.8774C11.5715 19.0701 11.7309 19.2158 11.9285 19.2624C12.1261 19.3092 12.3339 19.2501 12.4775 19.1065L14.1348 17.4492L17.514 20.8284C17.6284 20.9428 17.7784 21 17.9283 21C18.0782 21 18.2282 20.9428 18.3426 20.8284L20.8285 18.3424C21.0573 18.1136 21.0573 17.7426 20.8285 17.5138ZM17.9282 19.5854L14.549 16.2062C14.3202 15.9774 13.9492 15.9774 13.7204 16.2062L12.3192 17.6074L9.67499 9.67491L17.6075 12.3191L16.2063 13.7203C15.9777 13.9489 15.9775 14.3201 16.2063 14.5489L19.5855 17.9282L17.9282 19.5854Z" fill="#353C44" stroke="#353C44" stroke-width="0.5"/>
<path d="M8.61719 5.6875C8.94078 5.6875 9.20312 5.42516 9.20312 5.10156V1.58594C9.20312 1.26234 8.94078 1 8.61719 1C8.29359 1 8.03125 1.26234 8.03125 1.58594V5.10156C8.03125 5.42516 8.29359 5.6875 8.61719 5.6875Z" fill="#353C44" stroke="#353C44" stroke-width="0.5"/>
<path d="M4.05958 3.23107C3.83079 3.00224 3.45978 3.00224 3.23095 3.23107C3.00212 3.4599 3.00212 3.83087 3.23095 4.0597L5.71688 6.54564C5.94567 6.77447 6.31673 6.77447 6.54552 6.54564C6.77435 6.31681 6.77435 5.94583 6.54552 5.71701L4.05958 3.23107Z" fill="#353C44" stroke="#353C44" stroke-width="0.5"/>
<path d="M11.5176 6.54564L14.0035 4.0597C14.2324 3.83087 14.2324 3.4599 14.0035 3.23107C13.7747 3.00224 13.4037 3.00224 13.1749 3.23107L10.689 5.71701C10.4601 5.94583 10.4601 6.31681 10.689 6.54564C10.9177 6.77447 11.2888 6.77447 11.5176 6.54564Z" fill="#353C44" stroke="#353C44" stroke-width="0.5"/>
<path d="M5.6875 8.61719C5.6875 8.29359 5.42516 8.03125 5.10156 8.03125H1.58594C1.26234 8.03125 1 8.29359 1 8.61719C1 8.94078 1.26234 9.20312 1.58594 9.20312H5.10156C5.42516 9.20312 5.6875 8.94078 5.6875 8.61719Z" fill="#353C44" stroke="#353C44" stroke-width="0.5"/>
<path d="M3.116 21C2.956 21 2.844 20.972 2.78 20.916C2.716 20.852 2.684 20.748 2.684 20.604V20.256C2.684 20.104 2.716 19.996 2.78 19.932C2.844 19.868 2.956 19.836 3.116 19.836H4.292V14.52L3.26 15.144C3.196 15.184 3.14 15.204 3.092 15.204C3.02 15.204 2.96 15.164 2.912 15.084L2.528 14.484C2.496 14.428 2.48 14.376 2.48 14.328C2.48 14.248 2.524 14.184 2.612 14.136L4.592 12.948C4.648 12.908 4.704 12.88 4.76 12.864C4.816 12.848 4.892 12.84 4.988 12.84H5.384C5.688 12.84 5.84 12.988 5.84 13.284V19.836H7.016C7.176 19.836 7.288 19.868 7.352 19.932C7.416 19.996 7.448 20.104 7.448 20.256V20.604C7.448 20.748 7.416 20.852 7.352 20.916C7.288 20.972 7.176 21 7.016 21H3.116Z" fill="#353C44"/>
</svg>
