<svg width="20" height="20" viewBox="0 0 20 20" fill="none" xmlns="http://www.w3.org/2000/svg">
<path d="M19.7582 5.1556L14.8444 0.241812C14.522 -0.080604 14.0037 -0.080604 13.6813 0.241812L8.7716 5.1556C8.44918 5.47801 8.44918 5.99633 8.7716 6.31874C9.09401 6.64116 9.61233 6.64116 9.93474 6.31874L13.4323 2.82114V17.2197C13.4323 17.6808 13.8037 18.0522 14.2649 18.0522C14.7261 18.0522 15.0975 17.6808 15.0975 17.2197V2.82114L18.5951 6.31874C18.9175 6.64116 19.4358 6.64116 19.7582 6.31874C20.0806 6.00041 20.0806 5.47801 19.7582 5.1556Z" fill="#353C44"/>
<path d="M11.2284 13.6812C10.906 13.3588 10.3877 13.3588 10.0653 13.6812L6.5677 17.1789V2.78032C6.5677 2.31914 6.19631 1.94775 5.73513 1.94775C5.27395 1.94775 4.90256 2.31914 4.90256 2.78032V17.1789L1.40496 13.6812C1.08254 13.3588 0.564228 13.3588 0.241812 13.6812C-0.080604 14.0037 -0.080604 14.522 0.241812 14.8444L5.1556 19.7582C5.47801 20.0806 5.99633 20.0806 6.31874 19.7582L11.2325 14.8444C11.5509 14.522 11.5509 13.9996 11.2284 13.6812Z" fill="#353C44"/>
</svg>
