<svg width="21" height="21" viewBox="0 0 21 21" fill="none" xmlns="http://www.w3.org/2000/svg">
<path d="M20.1667 0.9H16.5952C16.2113 0.9 15.9 1.21128 15.9 1.59524C15.9 1.9792 16.2113 2.29048 16.5952 2.29048H19.4714V5.16667C19.4714 5.55063 19.7827 5.86191 20.1667 5.86191C20.5506 5.86191 20.8619 5.55063 20.8619 5.16667V1.59524C20.8619 1.21128 20.5506 0.9 20.1667 0.9Z" fill="#353C44" stroke="#353C44" stroke-width="0.2"/>
<path d="M5.16667 0.9H1.59524C1.21128 0.9 0.9 1.21128 0.9 1.59524V5.16667C0.9 5.55063 1.21128 5.86191 1.59524 5.86191C1.9792 5.86191 2.29048 5.55063 2.29048 5.16667V2.29048H5.16667C5.55063 2.29048 5.86191 1.9792 5.86191 1.59524C5.86191 1.21128 5.55063 0.9 5.16667 0.9Z" fill="#353C44" stroke="#353C44" stroke-width="0.2"/>
<path d="M5.44444 19.4714H2.36984V16.5952C2.36984 16.2053 2.03462 15.9 1.63492 15.9C1.23522 15.9 0.9 16.2053 0.9 16.5952V20.1667C0.9 20.5566 1.23522 20.8619 1.63492 20.8619H5.44444C5.84414 20.8619 6.17937 20.5566 6.17937 20.1667C6.17937 19.7767 5.84414 19.4714 5.44444 19.4714Z" fill="#353C44" stroke="#353C44" stroke-width="0.2"/>
<path d="M20.1667 15.9C19.7827 15.9 19.4714 16.2113 19.4714 16.5952V19.4714H16.5952C16.2113 19.4714 15.9 19.7827 15.9 20.1667C15.9 20.5506 16.2113 20.8619 16.5952 20.8619H20.1667C20.5506 20.8619 20.8619 20.5506 20.8619 20.1667V16.5952C20.8619 16.2113 20.5506 15.9 20.1667 15.9Z" fill="#353C44" stroke="#353C44" stroke-width="0.2"/>
<path d="M13.5398 10.4634H11.854V8.77773C11.854 8.39377 11.5428 8.0825 11.1588 8.0825C10.7748 8.0825 10.4636 8.39377 10.4636 8.77773V10.4634H8.77786C8.3939 10.4634 8.08262 10.7747 8.08262 11.1587C8.08262 11.5426 8.3939 11.8539 8.77786 11.8539H10.4636V13.5396C10.4636 13.9236 10.7748 14.2349 11.1588 14.2349C11.5428 14.2349 11.854 13.9236 11.854 13.5396V11.8539H13.5398C13.9237 11.8539 14.235 11.5426 14.235 11.1587C14.235 10.7747 13.9237 10.4634 13.5398 10.4634Z" fill="#353C44" stroke="#353C44" stroke-width="0.2"/>
</svg>
