<svg xmlns="http://www.w3.org/2000/svg" height="20px" width="20px" viewBox="0 0 20.7 20.7"><defs><style>.cls-1{fill:#353C44;stroke:#353C44;stroke-miterlimit:10;stroke-width:0.7px;}</style></defs><title>Ресурс 1</title><g id="Слой_2" data-name="Слой 2"><g id="Слой_1-2" data-name="Слой 1"><g id="Слой_2-2" data-name="Слой 2"><g id="Слой_1-2-2" data-name="Слой 1-2"><path class="cls-1" d="M10.35.35a10,10,0,1,0,10,10A10,10,0,0,0,10.35.35Zm0,19.18a9.18,9.18,0,1,1,9.18-9.18A9.2,9.2,0,0,1,10.35,19.53Z"/><path class="cls-1" d="M15.51,6.36,8.4,13.47,5.19,10.25a.41.41,0,0,0-.59.57h0l3.51,3.51a.41.41,0,0,0,.58,0l7.4-7.4a.41.41,0,0,0-.58-.58Z"/></g></g></g></g></svg>