<svg height="511pt" viewBox="0 -12 511.9986 511" width="511pt" xmlns="http://www.w3.org/2000/svg"><path d="m156.847656 427.867188c-1.554687-.679688-3.285156-.859376-4.949218-.511719-.535157.09375-1.050782.265625-1.535157.511719-.546875.191406-1.066406.449218-1.546875.769531l-1.269531 1.023437c-3.300781 3.367188-3.300781 8.753906 0 12.117188l1.269531 1.023437c.480469.324219 1 .582031 1.546875.769531.484375.246094 1 .417969 1.535157.511719.5625.097657 1.132812.15625 1.707031.171875 4.035156-.046875 7.488281-2.917968 8.269531-6.878906.785156-3.957031-1.3125-7.925781-5.027344-9.507812zm0 0"/><path d="m185.179688 416.179688c1.636718-1.59375 2.558593-3.777344 2.558593-6.058594 0-2.285156-.921875-4.46875-2.558593-6.058594-.789063-.769531-1.714844-1.378906-2.730469-1.792969-1.558594-.683593-3.289063-.863281-4.949219-.511719-.535156.09375-1.054688.265626-1.539062.511719-.542969.1875-1.0625.445313-1.542969.765625l-1.269531 1.027344c-3.300782 3.363281-3.300782 8.75 0 12.117188l1.269531 1.023437c.480469.320313 1 .578125 1.542969.765625.484374.246094 1.003906.421875 1.539062.511719.5625.101562 1.132812.15625 1.707031.171875 2.234375-.015625 4.378907-.90625 5.972657-2.472656zm0 0"/><path d="m190.980469 436.402344c-1.554688-.683594-3.285157-.859375-4.949219-.511719-.535156.09375-1.050781.265625-1.535156.511719-.546875.1875-1.066406.445312-1.542969.769531l-1.273437 1.023437c-3.300782 3.363282-3.300782 8.75 0 12.117188l1.273437 1.023438c.476563.320312.996094.578124 1.542969.769531.484375.246093 1 .417969 1.535156.511719.566406.097656 1.136719.15625 1.707031.167968 4.035157-.046875 7.488281-2.914062 8.269531-6.875.785157-3.960937-1.3125-7.925781-5.027343-9.507812zm0 0"/><path d="m363.191406 428.636719c-.476562-.320313-.996094-.578125-1.542968-.769531-.484376-.246094-1-.417969-1.535157-.511719-1.664062-.347657-3.394531-.167969-4.949219.511719-1.019531.417968-1.945312 1.027343-2.730468 1.792968-2.453125 2.429688-3.199219 6.097656-1.890625 9.292969 1.308593 3.191406 4.410156 5.285156 7.863281 5.300781.570312-.015625 1.140625-.074218 1.707031-.171875.535157-.09375 1.050781-.265625 1.535157-.511719.546874-.1875 1.066406-.445312 1.542968-.769531l1.273438-1.023437c3.300781-3.363282 3.300781-8.75 0-12.117188zm0 0"/><path d="m337.59375 403.035156c-.480469-.320312-1-.578125-1.546875-.765625-.484375-.246093-1-.417969-1.535156-.511719-1.664063-.351562-3.394531-.171874-4.949219.511719-1.015625.414063-1.945312 1.023438-2.730469 1.792969-2.449219 2.429688-3.195312 6.097656-1.886719 9.289062 1.304688 3.195313 4.410157 5.285157 7.859376 5.300782.574218-.015625 1.144531-.070313 1.707031-.171875.535156-.089844 1.050781-.265625 1.535156-.511719.546875-.1875 1.066406-.445312 1.546875-.765625l1.269531-1.023437c3.300781-3.367188 3.300781-8.753907 0-12.117188zm0 0"/><path d="m329.058594 437.171875c-.480469-.324219-1-.582031-1.542969-.769531-.484375-.246094-1.003906-.417969-1.539063-.511719-1.660156-.347656-3.390624-.171875-4.949218.511719-1.015625.414062-1.941406 1.023437-2.730469 1.792968-2.449219 2.429688-3.195313 6.097657-1.886719 9.289063 1.308594 3.195313 4.410156 5.289063 7.863282 5.300781.570312-.011718 1.140624-.070312 1.703124-.167968.535157-.09375 1.054688-.265626 1.539063-.511719.542969-.191407 1.0625-.449219 1.542969-.769531l1.273437-1.023438c3.296875-3.367188 3.296875-8.753906 0-12.117188zm0 0"/><path d="m166.40625 247.984375c-16.496094 0-29.867188 13.375-29.867188 29.867187 0 16.496094 13.371094 29.867188 29.867188 29.867188 16.492188 0 29.867188-13.371094 29.867188-29.867188 0-16.492187-13.375-29.867187-29.867188-29.867187zm0 42.667969c-7.070312 0-12.800781-5.730469-12.800781-12.800782 0-7.066406 5.730469-12.796874 12.800781-12.796874 7.066406 0 12.800781 5.730468 12.800781 12.796874 0 7.070313-5.734375 12.800782-12.800781 12.800782zm0 0"/><path d="m506.238281 10.28125c-6-7.347656-15.457031-10.949219-24.824219-9.445312-40.109374 6.058593-93.066406 18.210937-117.539062 41.710937-20.8125 19.90625-38.800781 42.570313-53.46875 67.351563-18.003906-3.648438-36.601562-3.183594-54.402344 1.367187-17.796875-4.550781-36.394531-5.015625-54.398437-1.367187-14.667969-24.785157-32.65625-47.445313-53.46875-67.351563-24.476563-23.5-77.433594-35.652344-117.539063-41.710937-9.367187-1.5-18.824218 2.101562-24.824218 9.445312-5.7500005 6.96875-7.335938 16.476562-4.164063 24.933594 9.160156 23.640625 14.234375 48.664062 15 74.003906-.632813 13.933594-2.523437 27.78125-5.648437 41.375-8.761719 45.226562-19.429688 101.308594 42.410156 136.800781-9.632813 33.296875-17.296875 70.492188-2.164063 102.132813 11 21.753906 28.699219 39.402344 50.480469 50.347656 3.117188 1.648438 6.527344 3.269531 10.042969 4.863281.386719 1.894531.917969 3.757813 1.589843 5.574219 9.90625 25.933594 45.667969 33.78125 60.585938 35.949219 3.21875.449219 6.460938.667969 9.710938.65625 10.808593.210937 21.417968-2.914063 30.386718-8.949219 13.121094 6.183594 27.496094 9.25 42 8.949219 14.511719.304687 28.898438-2.757813 42.027344-8.941407 11.839844 7.734376 26.175781 10.6875 40.105469 8.261719 14.925781-2.167969 50.691406-10.019531 60.589843-35.96875.667969-1.808593 1.199219-3.667969 1.585938-5.554687 3.515625-1.597656 6.921875-3.210938 10.035156-4.863282 21.765625-10.933593 39.453125-28.558593 50.457032-50.289062 15.113281-31.675781 7.449218-68.878906-2.183594-102.167969 61.839844-35.492187 51.199218-91.539062 42.410156-136.800781-3.125-13.59375-5.015625-27.441406-5.648438-41.375.765626-25.339844 5.839844-50.363281 15-74.003906 3.179688-8.453125 1.597657-17.960938-4.144531-24.933594zm-478.515625 143.566406c3.363282-14.660156 5.363282-29.601562 5.972656-44.628906-.769531-27.363281-6.207031-54.390625-16.085937-79.917969-1.050781-2.796875-.515625-5.945312 1.398437-8.242187 2.203126-2.644532 5.644532-3.917969 9.039063-3.34375 53.238281 8.039062 91.691406 21.203125 108.277344 37.144531 18.503906 17.8125 34.691406 37.878906 48.179687 59.734375-5.886718 2.101562-11.625 4.59375-17.175781 7.464844-12.566406-20.113282-27.570313-38.59375-44.671875-55.023438-10.378906-9.957031-35.320312-19.703125-68.4375-26.742187-2.910156-.621094-5.929688.316406-7.976562 2.476562-2.042969 2.160157-2.820313 5.226563-2.042969 8.097657 5.34375 19.011718 8.179687 38.636718 8.441406 58.382812-.605469 16.074219-2.691406 32.054688-6.230469 47.746094-8.78125 45.226562-12.597656 74.84375 18.398438 96.375-2.242188 5.734375-4.328125 11.503906-6.257813 17.3125-47.582031-29.523438-39.15625-73.898438-30.828125-116.835938zm43.878906 83.316406c-17.375-13.761718-17.144531-32.082031-8.449218-76.96875 3.785156-16.75 5.980468-33.816406 6.554687-50.976562-.136719-16.542969-2.046875-33.019531-5.703125-49.152344 26.503906 6.707032 41.472656 14.121094 46.832032 19.265625 15.996093 15.34375 30.039062 32.601563 41.8125 51.378907-20.667969 14.058593-38.328126 32.09375-51.949219 53.054687-11.09375 17.003906-20.824219 34.859375-29.097657 53.398437zm154.792969 227.746094c1.792969-2.71875 3.414063-5.46875 4.914063-8.179687 1.777344-3.402344 3.800781-6.667969 6.050781-9.773438.171875-.179687.332031-.359375.4375-.484375 4.539063-5.34375 11.195313-8.425781 18.207031-8.425781 7.011719 0 13.671875 3.082031 18.210938 8.425781.101562.125.265625.304688.4375.484375 2.25 3.105469 4.269531 6.371094 6.046875 9.773438 1.503906 2.710937 3.125 5.460937 4.917969 8.179687-19.191407 6.589844-40.03125 6.589844-59.222657 0zm109.320313 4.429688c-12.046875 2.621094-24.589844-1.171875-33.167969-10.027344-2.648437-3.390625-4.96875-7.027344-6.929687-10.859375-2.332032-4.480469-5.058594-8.742187-8.148438-12.734375-7.71875-9.417969-19.285156-14.839844-31.464844-14.746094-11.933594-.148437-23.308594 5.066406-30.984375 14.210938-.289062.261718-.554687.546875-.800781.851562-2.945312 3.90625-5.566406 8.050782-7.824219 12.390625-1.960937 3.828125-4.277343 7.464844-6.921875 10.855469-8.578125 8.835938-21.105468 12.628906-33.144531 10.035156-9.308594-1.347656-40.234375-7.167968-47.078125-25.125-2.839844-7.5-.679688-15.921875 6.828125-26.503906 12.160156-17.675781 27.25-33.148438 44.621094-45.746094 10.214843-8.652344 22.511719-14.488281 35.675781-16.929687 7.800781 10 18.765625 17.058593 31.097656 20.019531v18.023438c0 4.710937 3.820313 8.53125 8.53125 8.53125 4.714844 0 8.535156-3.820313 8.535156-8.53125v-18.023438c12.332032-2.945312 23.296876-9.988281 31.101563-19.976562 13.148437 2.453124 25.4375 8.273437 35.664063 16.894531 17.371093 12.597656 32.464843 28.066406 44.628906 45.746093 7.507812 10.601563 9.675781 19.023438 6.824218 26.507813-6.84375 17.96875-37.765624 23.789063-47.042968 25.136719zm-79.710938-110.421875c-16.980468-1.871094-30.792968-14.535157-34.132812-31.289063.011718-.707031.113281-1.410156.308594-2.089844 1.605468-4.285156 11.425781-9.285156 33.824218-9.285156 15.753906 0 34.132813 2.976563 34.132813 11.375-3.335938 16.753906-17.148438 29.417969-34.132813 31.289063zm189.441406 23.324219c-9.425781 18.410156-24.511718 33.3125-43.035156 42.519531-.980468.53125-2.070312 1.042969-3.105468 1.5625-2.105469-6.636719-5.273438-12.886719-9.386719-18.507813-13.285157-19.265625-29.765625-36.117187-48.734375-49.828125-10.804688-8.457031-23.089844-14.820312-36.230469-18.773437 1.421875-3.699219 2.183594-7.621094 2.253906-11.585938 0-10.625-6.648437-28.441406-51.203125-28.441406-27.996094 0-44.757812 6.824219-49.902344 20.625-.847656 2.519531-1.285156 5.15625-1.296874 7.816406.089843 3.972656.875 7.902344 2.320312 11.605469-13.15625 3.929687-25.453125 10.296875-36.257812 18.773437-18.960938 13.710938-35.441407 30.5625-48.722657 49.824219-4.109375 5.613281-7.28125 11.855469-9.386719 18.484375-1.042968-.511718-2.125-1.03125-3.117187-1.554687-18.542969-9.210938-33.640625-24.125-43.074219-42.554688-13.484375-28.304687-4.4375-64.664062 5.117188-96.539062 9.929687-32.777344 24.523437-63.957031 43.34375-92.578125 18.464844-29.613282 46.449218-52.070313 79.359375-63.691406h.09375c1.515625-.039063 2.992187-.496094 4.265625-1.324219 18.03125-4.847657 37.027344-4.796875 55.03125.136719.1875.050781.367187 0 .546875 0 .535156.089843 1.078125.125 1.621093.105468.589844.03125 1.179688-.007812 1.757813-.113281h.511719c17.972656-4.917969 36.929687-4.972656 54.929687-.152344 1.300781.859375 2.816407 1.339844 4.378907 1.382813h.152343c32.882813 11.625 60.84375 34.066406 79.308594 63.65625 18.820313 28.621094 33.417969 59.804687 43.339844 92.589844 9.558593 31.863281 18.605469 68.222656 5.121093 96.5625zm3.457032-222.039063c8.695312 44.878906 8.925781 63.207031-8.449219 76.960937-8.292969-18.539062-18.039063-36.398437-29.140625-53.410156-13.605469-20.953125-31.253906-38.984375-51.910156-53.042968 11.777344-18.777344 25.820312-36.039063 41.816406-51.386719 5.347656-5.121094 20.316406-12.550781 46.820312-19.257813-3.652343 16.132813-5.558593 32.609375-5.691406 49.152344.558594 17.160156 2.738282 34.234375 6.511719 50.984375zm45.542968-130.902344c-9.871093 25.53125-15.308593 52.558594-16.070312 79.917969.609375 15.027344 2.609375 29.96875 5.972656 44.628906 8.269532 42.9375 16.691406 87.3125-30.890625 116.804688-1.925781-5.804688-4.011719-11.574219-6.253906-17.316406 30.992187-21.527344 27.179687-51.148438 18.40625-96.375-3.546875-15.6875-5.636719-31.671876-6.238281-47.742188.261718-19.734375 3.101562-39.351562 8.441406-58.351562.769531-2.871094-.003906-5.933594-2.050781-8.089844-2.042969-2.15625-5.0625-3.09375-7.96875-2.476563-33.117188 7.042969-58.027344 16.785157-68.429688 26.734375-17.105469 16.433594-32.113281 34.917969-44.679687 55.035156-5.550782-2.875-11.289063-5.363281-17.175782-7.460937 13.488282-21.851563 29.675782-41.921875 48.175782-59.734375 16.589844-15.914062 55.042968-29.105469 108.28125-37.144531 3.394531-.574219 6.835937.699219 9.035156 3.347656 1.910156 2.289063 2.445312 5.429687 1.402344 8.222656zm0 0"/><path d="m375.472656 277.851562c0-16.492187-13.371094-29.867187-29.867187-29.867187-16.496094 0-29.867188 13.375-29.867188 29.867187 0 16.496094 13.371094 29.867188 29.867188 29.867188 16.496093 0 29.867187-13.371094 29.867187-29.867188zm-42.667968 0c0-7.066406 5.730468-12.796874 12.800781-12.796874 7.070312 0 12.800781 5.730468 12.800781 12.796874 0 7.070313-5.730469 12.800782-12.800781 12.800782-7.070313 0-12.800781-5.730469-12.800781-12.800782zm0 0"/><path d="m165.550781 317.960938c-18.019531 13.5-29.164062 3.308593-31.222656 1.089843-2.039063-2.265625-5.132813-3.277343-8.113281-2.644531-2.984375.628906-5.40625 2.804688-6.351563 5.703125-.945312 2.898437-.269531 6.082031 1.765625 8.351563 6.886719 7.289062 16.480469 11.410156 26.507813 11.390624 10.09375-.277343 19.8125-3.875 27.65625-10.238281 2.4375-1.828125 3.714843-4.820312 3.351562-7.847656-.367187-3.027344-2.316406-5.628906-5.121093-6.828125-2.804688-1.195312-6.03125-.808594-8.472657 1.023438zm0 0"/><path d="m377.628906 319.113281c-.5.542969-12.046875 13.164063-31.171875-1.152343-3.769531-2.828126-9.117187-2.066407-11.945312 1.707031-2.828125 3.769531-2.0625 9.117187 1.707031 11.945312 7.839844 6.367188 17.5625 9.964844 27.65625 10.238281 10.03125.015626 19.621094-4.113281 26.503906-11.40625 2.027344-2.277343 2.6875-5.464843 1.726563-8.359374-.957031-2.894532-3.386719-5.058594-6.375-5.675782-2.984375-.617187-6.074219.40625-8.101563 2.683594zm0 0"/><path d="m217.136719 164.085938-25.601563 17.066406c-2.535156 1.691406-3.976562 4.609375-3.78125 7.652344.199219 3.042968 2.003906 5.75 4.738282 7.097656 2.734374 1.351562 5.980468 1.140625 8.515624-.550782l25.601563-17.066406c3.917969-2.613281 4.976563-7.914062 2.363281-11.835937-2.617187-3.921875-7.914062-4.976563-11.835937-2.363281zm0 0"/><path d="m322.839844 192.988281c1.253906-1.882812 1.710937-4.1875 1.269531-6.40625-.445313-2.21875-1.75-4.171875-3.636719-5.429687l-25.597656-17.066406c-3.921875-2.613282-9.21875-1.558594-11.835938 2.363281-2.617187 3.921875-1.558593 9.222656 2.363282 11.835937l25.601562 17.066406c1.882813 1.257813 4.1875 1.714844 6.40625 1.269532 2.21875-.441406 4.171875-1.75 5.429688-3.632813zm0 0"/></svg>