<svg id="Capa_1" enable-background="new 0 0 512.005 512.005" height="512" viewBox="0 0 512.005 512.005" width="512" xmlns="http://www.w3.org/2000/svg"><g><circle cx="346.002" cy="231.026" r="10"/><circle cx="170.202" cy="231.026" r="10"/><path d="m226.002 371.026h-30c-5.523 0-10 4.477-10 10s4.477 10 10 10h30c11.938 0 22.665-5.264 30-13.585 7.335 8.321 18.062 13.585 30 13.585h30c5.523 0 10-4.477 10-10s-4.477-10-10-10h-30c-9.631 0-17.692-6.844-19.58-15.924l16.341-14.704c8.414-7.575 13.239-18.412 13.239-29.732v-4.64c0-2.652-1.054-5.196-2.929-7.071-20.441-20.44-53.701-20.44-74.143 0-1.875 1.875-2.929 4.419-2.929 7.071v4.64c0 11.32 4.826 22.157 13.241 29.733l16.339 14.703c-1.887 9.08-9.948 15.924-19.579 15.924zm10-60.36v-.167c11.698-9.179 28.302-9.179 40 0v.167c0 5.661-2.413 11.08-6.619 14.866l-13.381 12.041-13.379-12.04c-4.208-3.787-6.621-9.206-6.621-14.867z"/><path d="m7.686 371.298c-5.373 1.279-8.691 6.672-7.412 12.044 1.286 5.4 6.699 8.686 12.044 7.412l52.885-12.592c39.25 63.639 111.633 102.864 190.799 102.864 20.624 0 41.042-2.657 60.687-7.898 5.336-1.423 8.508-6.903 7.084-12.24-1.424-5.336-6.904-8.507-12.24-7.084-17.964 4.792-36.647 7.222-55.531 7.222-69.865 0-133.835-33.315-170.185-87.772l52.501-12.5c5.373-1.279 8.691-6.671 7.412-12.044s-6.672-8.694-12.044-7.412l-58.459 13.919c-11.626-22.704-18.171-47.659-19.1-72.929l77.559 18.466c5.359 1.277 10.762-2.026 12.044-7.412 1.279-5.373-2.039-10.765-7.412-12.044l-81.718-19.457c1.884-23.224 8.393-45.587 19.424-66.583 6.621-12.599 9.978-27.542 9.978-44.412v-79.82c0-7.064 3.609-13.463 9.656-17.117s13.392-3.875 19.673-.575l82.46 42.97c2.151 1.121 4.638 1.421 6.995.846 16.634-4.064 33.865-6.125 51.216-6.125s34.583 2.061 51.216 6.125c2.358.575 4.843.275 6.995-.846l82.489-42.985c6.254-3.285 13.598-3.064 19.644.59s9.656 10.053 9.656 17.117v79.82c0 16.871 3.357 31.813 9.978 44.412 11.028 20.989 17.537 43.344 19.424 66.584l-81.718 19.457c-5.373 1.279-8.691 6.671-7.412 12.044 1.281 5.38 6.679 8.69 12.044 7.412l77.559-18.466c-.929 25.27-7.474 50.224-19.1 72.929l-58.459-13.919c-5.37-1.277-10.765 2.04-12.044 7.412s2.04 10.765 7.412 12.044l52.499 12.5c-10.462 15.655-23.351 29.735-38.448 41.971-4.291 3.478-4.95 9.775-1.472 14.065 3.477 4.291 9.775 4.95 14.065 1.472 18.632-15.101 34.226-32.776 46.459-52.603l52.897 12.595c5.359 1.277 10.762-2.026 12.044-7.412 1.279-5.373-2.039-10.765-7.412-12.044l-47.563-11.325c12.404-25.789 19.001-54.021 19.223-82.472l28.341-6.748c5.373-1.279 8.691-6.671 7.412-12.044-1.279-5.372-6.669-8.693-12.044-7.412l-24.617 5.861c-2.409-24.82-9.572-48.722-21.384-71.205-5.098-9.7-7.682-21.513-7.682-35.108v-79.82c0-14.129-7.219-26.927-19.312-34.234-12.093-7.308-26.78-7.748-39.26-1.194l-79.165 41.252c-17.035-3.866-34.598-5.824-52.265-5.824s-35.23 1.958-52.265 5.824l-79.135-41.237c-12.508-6.569-27.195-6.129-39.289 1.179-12.092 7.307-19.312 20.105-19.312 34.234v79.82c0 13.596-2.584 25.408-7.683 35.109-11.816 22.489-18.98 46.398-21.385 71.204l-24.616-5.861c-5.37-1.28-10.765 2.04-12.044 7.412-1.279 5.373 2.039 10.765 7.412 12.044l28.341 6.748c.221 28.451 6.819 56.683 19.223 82.472z"/><path d="m126.002 111.026v30c0 5.523 4.477 10 10 10s10-4.477 10-10v-30c0-5.523-4.477-10-10-10s-10 4.477-10 10z"/><path d="m376.002 151.026c5.523 0 10-4.477 10-10v-30c0-5.523-4.477-10-10-10s-10 4.477-10 10v30c0 5.523 4.477 10 10 10z"/><circle cx="356.002" cy="447.025" r="10"/></g></svg>