<svg version="1.0" xmlns="http://www.w3.org/2000/svg"
 width="22" height="22" viewBox="0 0 1280.000000 1280.000000">
<g transform="translate(0.000000,1280.000000) scale(0.100000,-0.100000)"
fill="#353C44" stroke="none">
<path d="M1530 11648 l0 -1153 -448 448 c-246 246 -452 447 -457 447 -6 0
-138 -128 -295 -285 l-285 -285 948 -948 947 -947 947 947 948 948 -288 287
-287 288 -455 -455 -455 -455 0 753 0 752 4390 0 4390 0 0 -800 0 -800 410 0
410 0 0 1205 0 1205 -5210 0 -5210 0 0 -1152z" stroke="#353C44" stroke-width="0.2"/>
<path d="M4730 4805 l0 -4805 1610 0 1610 0 0 4805 0 4805 -1610 0 -1610 0 0
-4805z m2400 -5 l0 -3990 -790 0 -790 0 0 3990 0 3990 790 0 790 0 0 -3990z" stroke="#353C44" stroke-width="0.2"/>
<path d="M8730 4805 l0 -4805 2010 0 2010 0 0 4805 0 4805 -2010 0 -2010 0 0
-4805z m3200 -5 l0 -3990 -1190 0 -1190 0 0 3990 0 3990 1190 0 1190 0 0
-3990z" stroke="#353C44" stroke-width="0.2"/>
<path d="M3130 4405 l0 -4405 410 0 410 0 0 4405 0 4405 -410 0 -410 0 0
-4405z" stroke="#353C44" stroke-width="0.2"/>
<path d="M1530 5600 l0 -2410 410 0 410 0 0 2410 0 2410 -410 0 -410 0 0
-2410z" stroke="#353C44" stroke-width="0.2"/>
<path d="M1530 2000 l0 -410 410 0 410 0 0 410 0 410 -410 0 -410 0 0 -410z" stroke="#353C44" stroke-width="0.2"/>
<path d="M1530 405 l0 -405 410 0 410 0 0 405 0 405 -410 0 -410 0 0 -405z" stroke="#353C44" stroke-width="0.2"/>
</g>
</svg>
