<svg width="20" height="21" viewBox="0 0 20 21" fill="none" xmlns="http://www.w3.org/2000/svg">
<mask id="path-1-inside-1" fill="white">
<rect y="0.999756" width="20" height="20" rx="1"/>
</mask>
<rect y="0.999756" width="20" height="20" rx="1" stroke="#353C44" stroke-width="4" mask="url(#path-1-inside-1)"/>
<rect y="6.99976" width="20" height="2" rx="1" fill="#353C44"/>
<rect y="13.2725" width="20" height="1.81818" rx="0.909091" fill="#353C44"/>
<rect y="1.3634" width="20" height="7.27273" rx="1" fill="#353C44"/>
<rect x="12" y="20.9998" width="20" height="2" rx="1" transform="rotate(-90 12 20.9998)" fill="#353C44"/>
<rect x="6" y="20.9998" width="20" height="2" rx="1" transform="rotate(-90 6 20.9998)" fill="#353C44"/>
<path d="M11.9678 5.92085L14.1179 5.96288L14.0973 7.01737C14.0955 7.10874 14.1412 7.19451 14.2179 7.24406C14.2947 7.29361 14.3917 7.29989 14.4742 7.26062L18.7334 5.23411C18.8235 5.19121 18.8818 5.10101 18.8837 5.00116C18.8857 4.9013 18.831 4.80892 18.7426 4.76252L14.5659 2.57109C14.4849 2.52865 14.3878 2.53111 14.3091 2.57762C14.2305 2.6241 14.1815 2.70805 14.1797 2.79943L14.1591 3.85392L12.009 3.8119C11.9362 3.81048 11.8697 3.83869 11.8211 3.88546C11.7725 3.93222 11.7417 3.99756 11.7403 4.07036L11.7093 5.65209C11.7065 5.79769 11.8222 5.91802 11.9678 5.92085ZM12.2623 4.34428L14.4124 4.3863C14.558 4.38915 14.6784 4.27342 14.6812 4.12783L14.6986 3.23628L18.0306 4.98447L14.6329 6.60112L14.6503 5.70957C14.6532 5.56411 14.5374 5.44363 14.3918 5.4408L12.2417 5.39877L12.2623 4.34428Z" fill="white" stroke="white" stroke-width="0.3"/>
</svg>
