<svg width="20" height="21" viewBox="0 0 20 21" fill="none" xmlns="http://www.w3.org/2000/svg">
<mask id="path-1-inside-1" fill="white">
<rect y="1" width="20" height="20" rx="1"/>
</mask>
<rect y="1" width="20" height="20" rx="1" stroke="#353C44" stroke-width="4" mask="url(#path-1-inside-1)"/>
<rect y="7" width="20" height="2" rx="1" fill="#353C44"/>
<rect y="13.2727" width="20" height="1.81818" rx="0.909091" fill="#353C44"/>
<rect y="1.36365" width="20" height="7.27273" rx="1" fill="#353C44"/>
<rect x="12" y="21" width="20" height="2" rx="1" transform="rotate(-90 12 21)" fill="#353C44"/>
<rect x="6" y="21" width="20" height="2" rx="1" transform="rotate(-90 6 21)" fill="#353C44"/>
<path d="M18.8693 6.29001L17.3487 4.76936L18.0945 4.02359C18.1591 3.95898 18.1856 3.86551 18.1646 3.77657C18.1436 3.68762 18.0781 3.6159 17.9914 3.58701L13.5167 2.09545C13.422 2.06386 13.3175 2.08852 13.2469 2.15915C13.1763 2.22978 13.1516 2.33423 13.1832 2.42898L14.6748 6.90365C14.7037 6.99034 14.7754 7.05589 14.8643 7.07688C14.9533 7.09792 15.0467 7.07134 15.1114 7.00671L15.8572 6.26094L17.3778 7.78157C17.4293 7.83305 17.4968 7.85881 17.5642 7.85881C17.6317 7.85881 17.6992 7.83307 17.7507 7.78157L18.8693 6.6629C18.9723 6.55992 18.9723 6.39298 18.8693 6.29001ZM17.5642 7.22223L16.0436 5.7016C15.9406 5.59863 15.7736 5.59863 15.6707 5.7016L15.0401 6.33215L13.8503 2.7625L17.4199 3.95239L16.7894 4.58293C16.6865 4.6858 16.6864 4.85286 16.7894 4.95581L18.31 6.47646L17.5642 7.22223Z" fill="white" stroke="white" stroke-width="0.3"/>
</svg>
