<svg width="21" height="20" viewBox="0 0 21 20" fill="none" xmlns="http://www.w3.org/2000/svg">
<path d="M13.9717 10.7891V10.789L13.9685 10.7891C13.1628 10.8151 12.5402 11.4908 12.5661 12.2947L12.566 12.2947L12.5663 12.2981C12.5901 12.6551 12.7244 12.9712 12.9317 13.2033C12.1203 14.7692 10.8882 15.9226 9.04109 16.8935L9.04091 16.8936C7.777 17.5614 6.46797 17.7989 5.15955 17.6325C4.09511 17.4905 3.27703 17.0196 2.76378 16.25C2.00997 15.0955 1.93944 13.8523 2.57599 12.6028L2.57633 12.6021C3.02655 11.7017 3.73926 11.036 4.19035 10.7036L4.24747 10.6615L4.2266 10.5937C4.13044 10.2812 3.98655 9.75325 3.91499 9.37159L3.8859 9.21644L3.75805 9.30902C0.204898 11.882 0.563344 15.3765 1.65377 17.037L1.65389 17.0372C2.47492 18.2811 4.13097 19.0405 5.94441 19.0405C6.43386 19.0405 6.92489 18.9917 7.41685 18.8689C10.5228 18.2615 12.8838 16.4224 14.2311 13.6897C14.9572 13.5863 15.4992 12.9495 15.474 12.1914C15.448 11.4117 14.7989 10.7891 14.02 10.7891H13.9717Z" fill="#353C44" stroke="#353C44" stroke-width="0.2"/>
<path d="M9.16013 6.43687V6.43681L9.1569 6.43692C8.35127 6.46291 7.72861 7.13861 7.75454 7.94244L7.75454 7.94255C7.78053 8.72222 8.42961 9.34486 9.20848 9.34486H9.25684V9.34496L9.26138 9.34476C9.80891 9.31987 10.2844 8.98544 10.5062 8.52279H10.8768C12.6942 8.52279 14.4159 9.04863 15.9716 10.0778L15.9717 10.0779C17.1651 10.8655 18.0211 11.8893 18.4964 13.1251L18.4964 13.1251L18.497 13.1268C18.8986 14.1188 18.8727 15.0791 18.4527 15.8961C17.793 17.1445 16.6907 17.8249 15.2289 17.8249C14.2793 17.8249 13.3747 17.5394 12.9005 17.326L12.8407 17.2991L12.7922 17.3432C12.5295 17.582 12.0491 17.9664 11.7133 18.2063L11.5737 18.306L11.7292 18.3783C12.7795 18.8668 13.8577 19.1372 14.8904 19.1372C17.2477 19.1372 18.9996 17.8359 19.6702 16.5196L19.6705 16.519C20.3909 15.0781 20.3342 12.6171 18.496 10.5333C16.6376 8.35736 13.9009 7.16222 10.7801 7.16222H10.4534C10.2087 6.72406 9.73234 6.43687 9.20848 6.43687H9.16013Z" fill="#353C44" stroke="#353C44" stroke-width="0.2"/>
<path d="M7.54036 15.4137V15.4137L7.54359 15.4136C8.34922 15.3876 8.97188 14.7119 8.94595 13.9081L8.94595 13.908C8.91996 13.1283 8.27088 12.5057 7.492 12.5057H7.44365H7.44226C7.41866 12.5057 7.38429 12.5057 7.34907 12.5092C7.34023 12.5101 7.33078 12.5112 7.32094 12.5128C6.36898 10.905 5.97519 9.15833 6.11684 7.26971L6.11689 7.26888C6.21233 5.83739 6.68893 4.6002 7.5212 3.57769L7.52122 3.5777L7.52235 3.57625C7.8591 3.14661 8.35654 2.82296 8.88723 2.60357C9.41745 2.38437 9.97346 2.27234 10.4199 2.26054C11.6524 2.23744 12.5372 2.99138 13.1287 3.92763C13.7209 4.86506 14.0059 5.96684 14.0413 6.59089L14.0455 6.6658L14.1186 6.68267C14.4276 6.75399 14.9552 6.92173 15.3184 7.04278L15.4608 7.09026L15.4497 6.94053C15.1567 2.98484 12.7069 0.9 10.3209 0.9C8.09538 0.9 6.0553 2.50541 5.24577 4.85957C4.12969 7.9659 4.84565 10.9489 6.19002 13.3035C6.07666 13.4921 6.01517 13.7544 6.03816 14.0142C6.06564 14.7926 6.71408 15.4137 7.492 15.4137H7.54036Z" fill="#353C44" stroke="#353C44" stroke-width="0.2"/>
</svg>
