<svg width="21" height="18" viewBox="0 0 21 18" fill="none" xmlns="http://www.w3.org/2000/svg">
<path d="M14.7564 5.59811L15.3135 5.53759C15.4468 5.52314 15.5817 5.51578 15.7146 5.51578C17.7337 5.51578 19.3765 7.15862 19.3765 9.17772C19.3765 11.1971 17.7337 12.8401 15.7146 12.8401H15.1258H15.0508V12.9151V14.0635V14.1385H15.1258H15.7146C18.4499 14.1385 20.675 11.9132 20.675 9.17772C20.675 6.46235 18.4822 4.24964 15.7742 4.2177C15.5133 3.17742 14.9412 2.23352 14.1269 1.51522C13.1524 0.655537 11.8993 0.18208 10.5984 0.18208C7.65637 0.18208 5.26303 2.57567 5.26303 5.51788C5.26303 5.53732 5.26314 5.55677 5.26336 5.57622C5.24435 5.57596 5.22534 5.57583 5.20634 5.57583C2.84554 5.57587 0.925 7.49637 0.925 9.85718C0.925 12.218 2.84554 14.1385 5.20634 14.1385H6.78047H6.85547V14.0635V12.9151V12.8401H6.78047H5.20634C3.56163 12.8401 2.22344 11.5019 2.22344 9.85718C2.22344 8.2125 3.56163 6.87431 5.20634 6.87431C5.41883 6.87431 5.63222 6.89727 5.84055 6.94264L5.84057 6.94265L6.66974 7.12303L6.77804 7.14659L6.75964 7.0373L6.61881 6.20051C6.58075 5.97432 6.56147 5.74466 6.56147 5.51792C6.56147 3.29178 8.37252 1.48056 10.5984 1.48056C12.6137 1.48056 14.3341 2.98439 14.5999 4.978L14.6739 5.53346L14.6836 5.60601L14.7564 5.59811Z" fill="#353C44" stroke="#353C44" stroke-width="0.15"/>
<path d="M9.00946 7.88986L8.96266 7.85172L8.9154 7.88929L6.66427 9.67878L6.60556 9.72545L6.65223 9.78416L7.36686 10.6832L7.41354 10.7419L7.47225 10.6952L8.28502 10.0491V16.6561V16.7311H8.36002H9.50846H9.58346V16.6561V10.0328L10.39 10.6902L10.4481 10.7376L10.4955 10.6795L11.2211 9.78928L11.2685 9.73115L11.2104 9.68376L9.00946 7.88986Z" fill="#353C44" stroke="#353C44" stroke-width="0.15"/>
<path d="M14.2273 14.6617L14.1799 14.6036L14.1217 14.6509L13.3151 15.3084V8.68506V8.61006H13.2401H12.0917H12.0167V8.68506V15.2921L11.2039 14.646L11.1452 14.5993L11.0986 14.658L10.3839 15.557L10.3372 15.6158L10.396 15.6624L12.6471 17.4519L12.6943 17.4895L12.7411 17.4513L14.9421 15.6575L15.0002 15.6101L14.9528 15.5519L14.2273 14.6617Z" fill="#353C44" stroke="#353C44" stroke-width="0.15"/>
</svg>
